<svg width="40" height="40" viewBox="0 0 40 40" fill="none" xmlns="http://www.w3.org/2000/svg">
<path d="M20.6936 5.23811C20.4925 5.0838 20.2448 5 19.9898 5C19.7348 5 19.4871 5.0838 19.286 5.23811L5 17.7362L6.40873 19.4897L8.4 17.9616V32.7692C8.4012 33.3605 8.64039 33.9272 9.06521 34.3453C9.49004 34.7634 10.0659 34.9988 10.6667 35H29.3333C29.9341 34.9988 30.51 34.7634 30.9348 34.3453C31.3596 33.9272 31.5988 33.3605 31.6 32.7692V17.9716L33.5913 19.4997L35 17.7463L20.6936 5.23811ZM22.2667 32.7692H17.7333V23.8459H22.2667V32.7692ZM24.5333 32.7692V23.8459C24.5327 23.2545 24.2937 22.6874 23.8688 22.2692C23.4438 21.8509 22.8676 21.6157 22.2667 21.6151H17.7333C17.1324 21.6157 16.5562 21.8509 16.1312 22.2692C15.7063 22.6874 15.4673 23.2545 15.4667 23.8459V32.7692H10.6667V16.2226L20 7.53361L29.3333 16.2338V32.7692H24.5333Z" fill="white"/>
</svg>
