<svg width="40" height="40" viewBox="0 0 40 40" fill="none" xmlns="http://www.w3.org/2000/svg">
<path d="M9 7.84V33.16C9 33.2703 9.02134 33.3795 9.0628 33.4815C9.10426 33.5834 9.16503 33.676 9.24164 33.754C9.31825 33.832 9.40919 33.8938 9.50929 33.9361C9.60938 33.9783 9.71666 34 9.825 34H30.175C30.2833 34 30.3906 33.9783 30.4907 33.9361C30.5908 33.8938 30.6818 33.832 30.7584 33.754C30.835 33.676 30.8957 33.5834 30.9372 33.4815C30.9787 33.3795 31 33.2703 31 33.16V12.25C31.0003 12.1393 30.979 12.0295 30.9375 11.9272C30.896 11.8248 30.835 11.7319 30.758 11.6536L26.4295 7.2464C26.2749 7.08882 26.0652 7.0002 25.8465 7H9.825C9.6062 7 9.39635 7.0885 9.24164 7.24603C9.08692 7.40356 9 7.61722 9 7.84Z" stroke="white" stroke-width="2" stroke-linecap="round" stroke-linejoin="round"/>
<path fill-rule="evenodd" clip-rule="evenodd" d="M25.0582 7C25.5126 7 25.8809 7.37641 25.8809 7.84074V12.2313H30.1773C30.6317 12.2313 31 12.6077 31 13.072C31 13.5363 30.6317 13.9127 30.1773 13.9127H25.8261C25.4042 13.9127 24.9996 13.7415 24.7014 13.4367C24.4031 13.1318 24.2355 12.7184 24.2355 12.2873V7.84074C24.2355 7.37641 24.6038 7 25.0582 7ZM19.9393 17.0315L18.9363 19.2046C18.8195 19.4577 18.5871 19.6348 18.3165 19.6771L15.998 20.039L17.6995 21.8119C17.8829 22.0031 17.9663 22.2721 17.924 22.5363L17.5314 24.9903L19.5426 23.8598C19.7895 23.721 20.0887 23.721 20.3356 23.8598L22.347 24.9904L21.9542 22.5363C21.9119 22.2721 21.9953 22.0031 22.1788 21.8119L23.8794 20.0399L21.5627 19.677C21.2922 19.6347 21.0601 19.4577 20.9433 19.2049L19.9393 17.0315ZM19.2427 15.0582C19.4501 14.9207 19.6919 14.8475 19.9391 14.8475C20.1863 14.8475 20.4282 14.9207 20.6355 15.0582C20.8398 15.1936 21.002 15.3858 21.1031 15.612L22.2444 18.0827L24.783 18.4803C24.7835 18.4803 24.7839 18.4804 24.7844 18.4805C25.8848 18.6514 26.2095 20.0143 25.5032 20.7494L23.6453 22.6852L24.0848 25.4308C24.0848 25.4307 24.0848 25.4309 24.0848 25.4308C24.2462 26.4386 23.2223 27.402 22.2017 26.8278L19.9391 25.556L17.6765 26.8278C16.658 27.4008 15.6316 26.4415 15.7934 25.4325C15.7934 25.4326 15.7934 25.4324 15.7934 25.4325C15.7934 25.4323 15.7935 25.4319 15.7935 25.4317L16.2329 22.6853L14.3764 20.7507C14.376 20.7504 14.3757 20.75 14.3753 20.7497C13.6622 20.0093 14.0003 18.6517 15.0925 18.4794L15.0938 18.4792L17.635 18.0825L18.7751 15.6122C18.8761 15.3859 19.0383 15.1937 19.2427 15.0582Z" fill="white"/>
</svg>
