<svg width="40" height="40" viewBox="0 0 40 40" fill="none" xmlns="http://www.w3.org/2000/svg">
<path d="M9 16L19.3319 24L30 16" stroke="white" stroke-width="2" stroke-linecap="round" stroke-linejoin="round"/>
<path d="M29.3329 33.3331H10.6666C9.95938 33.3331 9.28112 33.0522 8.78103 32.5521C8.28095 32.052 8 31.3737 8 30.6665V17.3335C8 16.6262 8.28095 15.948 8.78103 15.4479C9.28112 14.9478 9.95938 14.6669 10.6666 14.6669H27.9996C28.7068 14.6669 29.385 14.9478 29.8851 15.4479C30.3852 15.948 30.6662 16.6262 30.6662 17.3335V19.0001" stroke="white" stroke-width="2" stroke-linecap="round"/>
<path d="M27 26.6666H34.9998M34.9998 26.6666L30.9999 22.6667M34.9998 26.6666L30.9999 30.6665" stroke="white" stroke-width="2" stroke-linecap="round" stroke-linejoin="round"/>
<path d="M11 7.63V14.5H27V10.9375C27.0002 10.8544 26.9847 10.7722 26.9545 10.6954C26.9243 10.6186 26.88 10.5489 26.824 10.4902L23.676 7.1848C23.5636 7.06662 23.4111 7.00015 23.252 7H11.6C11.4409 7 11.2883 7.06637 11.1757 7.18452C11.0632 7.30267 11 7.46291 11 7.63Z" stroke="white" stroke-width="2" stroke-linecap="round" stroke-linejoin="round"/>
</svg>
