<svg width="120.000000" height="120.000000" viewBox="0 0 120 120" fill="none" xmlns="http://www.w3.org/2000/svg" xmlns:xlink="http://www.w3.org/1999/xlink">
	<desc>
			Created with Pixso.
	</desc>
	<defs>
		<clipPath id="clip126_3244">
			<rect id="bi:question-octagon" width="120.000000" height="120.000000" fill="white" fill-opacity="0"/>
		</clipPath>
	</defs>
	<rect id="bi:question-octagon" width="120.000000" height="120.000000" fill="#FFFFFF" fill-opacity="0"/>
	<g clip-path="url(#clip126_3244)">
		<path id="Vector" d="M34.0508 1.09521C34.752 0.394043 35.7051 0 36.6973 0L83.3027 0C84.2949 0 85.248 0.394043 85.9492 1.09521L118.904 34.0498C119.605 34.7529 120 35.7051 120 36.6973L120 83.3027C120 84.2949 119.605 85.2471 118.904 85.9502L85.9492 118.905C85.248 119.606 84.2949 120 83.3027 120L36.6973 120C35.7051 120 34.752 119.606 34.0508 118.905L1.0957 85.9502C0.394531 85.2471 0 84.2949 0 83.3027L0 36.6973C0 35.7051 0.394531 34.7529 1.0957 34.0498L34.0508 1.09521ZM38.25 7.5L7.5 38.25L7.5 81.75L38.25 112.5L81.75 112.5L112.5 81.75L112.5 38.25L81.75 7.5L38.25 7.5Z" fill="#DC6A00" fill-opacity="1.000000" fill-rule="nonzero"/>
		<path id="Vector" d="M42.002 45.0259C41.9922 45.2383 42.0273 45.4502 42.1035 45.6484C42.1797 45.8472 42.2969 46.0278 42.4473 46.1802C42.5977 46.332 42.7773 46.4521 42.9746 46.5327C43.1738 46.6138 43.3867 46.6533 43.6016 46.6494L49.0781 46.6494C49.9941 46.6494 50.7246 45.9067 50.8438 45.0063C51.4414 40.6943 54.4277 37.5522 59.752 37.5522C64.3047 37.5522 68.4746 39.8071 68.4746 45.23C68.4746 49.4038 65.9922 51.3232 62.0684 54.2417C57.6016 57.4556 54.0625 61.209 54.3145 67.3022L54.3359 68.7285C54.3418 69.1597 54.5195 69.5713 54.8301 69.8735C55.1406 70.1763 55.5586 70.3457 55.9941 70.3457L61.3789 70.3457C61.8184 70.3457 62.2402 70.1724 62.5508 69.8643C62.8633 69.5562 63.0371 69.1382 63.0371 68.7021L63.0371 68.0122C63.0371 63.2925 64.8496 61.9189 69.7422 58.2446C73.7852 55.2012 78 51.8228 78 44.7305C78 34.7983 69.5293 30 60.2559 30C51.8457 30 42.6328 33.8779 42.002 45.0259ZM52.3379 82.9067C52.3379 86.4102 55.1582 89 59.041 89C63.084 89 65.8652 86.4102 65.8652 82.9067C65.8652 79.2783 63.0781 76.728 59.0352 76.728C55.1582 76.728 52.3379 79.2783 52.3379 82.9067Z" fill="#DC6A00" fill-opacity="1.000000" fill-rule="evenodd"/>
	</g>
</svg>
