<svg width="120.000000" height="120.000000" viewBox="0 0 120 120" fill="none" xmlns="http://www.w3.org/2000/svg" xmlns:xlink="http://www.w3.org/1999/xlink">
	<desc>
			Created with Pixso.
	</desc>
	<defs/>
	<path id="Vector" d="M34.0508 1.09473C34.752 0.393555 35.7051 0 36.6973 0L83.3027 0C84.2949 0 85.248 0.393555 85.9492 1.09473L118.904 34.0498C119.605 34.7529 120 35.7051 120 36.6973L120 83.3027C120 84.2949 119.605 85.2471 118.904 85.9502L85.9492 118.905C85.248 119.606 84.2949 120 83.3027 120L36.6973 120C35.7051 120 34.752 119.606 34.0508 118.905L1.0957 85.9502C0.394531 85.2471 0 84.2949 0 83.3027L0 36.6973C0 35.7051 0.394531 34.7529 1.0957 34.0498L34.0508 1.09473ZM38.25 7.5L7.5 38.25L7.5 81.75L38.25 112.5L81.75 112.5L112.5 81.75L112.5 38.25L81.75 7.5L38.25 7.5Z" fill="#003A67" fill-opacity="1.000000" fill-rule="nonzero"/>
	<path id="Vector" d="M52.5156 82.5C52.5156 81.5156 52.709 80.54 53.0859 79.6299C53.4629 78.7207 54.0156 77.8936 54.7129 77.1973C55.4082 76.501 56.2363 75.9482 57.1445 75.5713C58.0547 75.1943 59.0312 75 60.0156 75C61 75 61.9766 75.1943 62.8867 75.5713C63.7949 75.9482 64.623 76.501 65.3184 77.1973C66.0156 77.8936 66.5684 78.7207 66.9453 79.6299C67.3223 80.54 67.5156 81.5156 67.5156 82.5C67.5156 84.4893 66.7246 86.3975 65.3184 87.8037C63.9121 89.21 62.0039 90 60.0156 90C58.0273 90 56.1191 89.21 54.7129 87.8037C53.3066 86.3975 52.5156 84.4893 52.5156 82.5ZM53.25 37.4629C53.1504 36.5166 53.25 35.5605 53.5449 34.6553C53.8379 33.75 54.3184 32.917 54.9551 32.21C55.5918 31.5029 56.3691 30.9375 57.2383 30.5498C58.1074 30.1631 59.0488 29.9629 60 29.9629C60.9512 29.9629 61.8926 30.1631 62.7617 30.5498C63.6309 30.9375 64.4102 31.5029 65.0449 32.21C65.6816 32.917 66.1621 33.75 66.457 34.6553C66.75 35.5605 66.8496 36.5166 66.75 37.4629L64.125 63.7656C64.0371 64.7988 63.5645 65.7617 62.8008 66.4629C62.0371 67.1641 61.0371 67.5537 60 67.5537C58.9629 67.5537 57.9648 67.1641 57.2012 66.4629C56.4375 65.7617 55.9629 64.7988 55.875 63.7656L53.25 37.4629Z" fill="#003A67" fill-opacity="1.000000" fill-rule="nonzero"/>
</svg>
