<svg width="25" height="24" viewBox="0 0 25 24" fill="none" xmlns="http://www.w3.org/2000/svg">
<path d="M4 4.5635L12.504 2L21 4.5635V9.821C21 15.3475 17.5765 20.253 12.5015 22C7.4245 20.253 4 15.346 4 9.819V4.564V4.5635Z" stroke="white" stroke-width="2" stroke-linejoin="round"/>
<path d="M12.5 15C13.4283 15 14.3185 14.6313 14.9749 13.9749C15.6313 13.3185 16 12.4283 16 11.5C16 10.5717 15.6313 9.6815 14.9749 9.02513C14.3185 8.36875 13.4283 8 12.5 8C11.5717 8 10.6815 8.36875 10.0251 9.02513C9.36875 9.6815 9 10.5717 9 11.5C9 12.4283 9.36875 13.3185 10.0251 13.9749C10.6815 14.6313 11.5717 15 12.5 15Z" stroke="white" stroke-width="2" stroke-linejoin="round"/>
<path d="M15 14.5L18 18" stroke="white" stroke-width="2" stroke-linecap="round" stroke-linejoin="round"/>
<path d="M21.001 9.8215C21.001 15.3475 17.5775 20.2535 12.502 22" stroke="white" stroke-width="2" stroke-linejoin="round"/>
</svg>
