<svg width="48.000000" height="48.000000" viewBox="0 0 48 48" fill="none" xmlns="http://www.w3.org/2000/svg" xmlns:xlink="http://www.w3.org/1999/xlink">
	<desc>
			Created with Pixso.
	</desc>
	<defs>
		<clipPath id="clip96_2905">
			<rect id="ic:round-phone" width="32.000000" height="32.000000" transform="matrix(-1 0 0 1 40 8)" fill="white" fill-opacity="0"/>
		</clipPath>
		<linearGradient id="paint_linear_96_2906_0" x1="23.989552" y1="4.232049" x2="23.989552" y2="41.837318" gradientUnits="userSpaceOnUse">
			<stop stop-color="#3BDDF3"/>
			<stop offset="1.000000" stop-color="#004E96"/>
		</linearGradient>
	</defs>
	<rect id="ic:round-phone" width="32.000000" height="32.000000" transform="matrix(-1 0 0 1 40 8)" fill="#FFFFFF" fill-opacity="0"/>
	<g clip-path="url(#clip96_2905)">
		<path id="Vector" d="M15.1562 28.0024L18.2656 27.6473C18.6328 27.6044 19.002 27.6449 19.3516 27.7657C19.6992 27.8867 20.0137 28.0848 20.2754 28.3455L22.5273 30.5989C26.0039 28.8307 28.8301 26.0048 30.5996 22.5281L28.334 20.2625C27.8066 19.7358 27.5488 19.001 27.6348 18.2539L27.9902 15.1677C28.0605 14.5703 28.3457 14.0193 28.7949 13.6195C29.2461 13.2197 29.8262 12.9993 30.4277 13L32.5469 13C33.9297 13 35.082 14.1512 34.9961 15.5352C34.3457 25.994 25.9824 34.3464 15.5352 34.9955C14.1504 35.0812 13 33.9301 13 32.5461L13 30.4274C12.9883 29.1904 13.918 28.1494 15.1562 28.0024Z" fill="url(#paint_linear_96_2906_0)" fill-opacity="1.000000" fill-rule="nonzero"/>
	</g>
</svg>
