<svg width="24.000000" height="24.000000" viewBox="0 0 24 24" fill="none" xmlns="http://www.w3.org/2000/svg" xmlns:xlink="http://www.w3.org/1999/xlink">
	<desc>
			Created with Pixso.
	</desc>
	<defs>
		<clipPath id="clip134_5491">
			<rect id="la:user-cog" width="24.000000" height="24.000000" fill="white" fill-opacity="0"/>
		</clipPath>
	</defs>
	<rect id="la:user-cog" width="24.000000" height="24.000000" fill="#FFFFFF" fill-opacity="0"/>
	<g clip-path="url(#clip134_5491)">
		<path id="Vector" d="M12 3.75C9.07422 3.75 6.75 6.0752 6.75 9C6.74414 9.86035 6.95312 10.708 7.35352 11.4688C7.75586 12.2295 8.33984 12.8789 9.05273 13.3599C6.38281 14.5093 4.5 17.1689 4.5 20.25L6 20.25C6 16.9502 8.69922 14.25 12 14.25C14.9258 14.25 17.25 11.9248 17.25 9C17.25 6.0752 14.9258 3.75 12 3.75ZM12 5.25C14.0996 5.25 15.75 6.8999 15.75 9C15.75 11.1001 14.0996 12.75 12 12.75C9.90039 12.75 8.25 11.1001 8.25 9C8.25 6.8999 9.90039 5.25 12 5.25ZM18.0742 13.5L18.0742 15.0752C17.625 15.1499 17.1758 15.375 16.8008 15.6001L15.6758 14.4751L14.625 15.5249L15.75 16.6499C15.4492 17.0249 15.3008 17.4751 15.2246 18L13.5 18L13.5 19.5L15.0742 19.5C15.1504 19.9502 15.375 20.3999 15.5996 20.8501L14.4746 21.9751L15.5254 23.0249L16.6504 21.8999C17.0254 22.125 17.4746 22.3501 17.9258 22.4248L17.9258 24L19.4258 24L19.4258 22.4248C19.875 22.3501 20.3242 22.125 20.6992 21.8999L21.8242 23.0249L22.875 21.9751L21.75 20.8501C22.0508 20.4751 22.1992 20.0249 22.2754 19.5L24 19.5L24 18L22.4258 18C22.3496 17.5498 22.125 17.1001 21.9004 16.6499L23.0254 15.5249L21.9746 14.4751L20.8496 15.6001C20.4746 15.375 20.0254 15.1499 19.5742 15.0752L19.5742 13.5L18.0742 13.5ZM18.75 16.5C20.0254 16.5 21 17.4751 21 18.75C21 20.0249 20.0254 21 18.75 21C17.4746 21 16.5 20.0249 16.5 18.75C16.5 17.4751 17.4746 16.5 18.75 16.5ZM18.75 18C18.6543 18.001 18.5605 18.0229 18.4746 18.0645C18.3848 18.1069 18.3047 18.1646 18.2344 18.2349C18.1641 18.3042 18.1074 18.3853 18.0645 18.4746C18.0234 18.5605 18.002 18.6548 18 18.75C18 19.0312 18.2109 19.3125 18.4746 19.4355C18.5605 19.4771 18.6543 19.499 18.75 19.5C19.125 19.5 19.5 19.125 19.5 18.75C19.5 18.375 19.125 18 18.75 18Z" fill="#003A67" fill-opacity="1.000000" fill-rule="nonzero"/>
	</g>
</svg>
