<svg width="24" height="24" viewBox="0 0 24 24" fill="none" xmlns="http://www.w3.org/2000/svg">
<path d="M12.0588 12.8421V9.26316M20 6.57895L18.2353 4.78947M10.2941 3H13.8235M12.0588 20C10.1867 20 8.39127 19.2459 7.06748 17.9035C5.7437 16.5611 5 14.7405 5 12.8421C5 10.9437 5.7437 9.12307 7.06748 7.78071C8.39127 6.43834 10.1867 5.68421 12.0588 5.68421C13.9309 5.68421 15.7264 6.43834 17.0502 7.78071C18.374 9.12307 19.1176 10.9437 19.1176 12.8421C19.1176 14.7405 18.374 16.5611 17.0502 17.9035C15.7264 19.2459 13.9309 20 12.0588 20Z" stroke="white" stroke-width="2" stroke-linecap="round" stroke-linejoin="round"/>
</svg>
