<svg width="24" height="24" viewBox="0 0 24 24" fill="none" xmlns="http://www.w3.org/2000/svg">
<path d="M12.9375 3.98276V5.62069H14.1688C14.5488 5.62069 14.9225 5.72552 15.2525 5.92338L16.8651 6.88779C16.9126 6.91662 16.9651 6.93103 17.0201 6.93103H19.8126C20.0612 6.93103 20.2997 7.03457 20.4755 7.21888C20.6513 7.40318 20.7501 7.65315 20.7501 7.91379C20.7501 8.17444 20.6513 8.42441 20.4755 8.60871C20.2997 8.79301 20.0612 8.89655 19.8126 8.89655H19.2788L21.9176 15.0447C21.9956 15.2266 22.0189 15.429 21.9846 15.6252C21.9502 15.8213 21.8597 16.0018 21.7251 16.1428L21.0626 15.4483L21.7239 16.1441L21.7226 16.1467L21.7201 16.1493L21.7126 16.1572L21.7051 16.1637L21.6926 16.1768L21.6364 16.2292C21.3739 16.4599 21.0851 16.6577 20.7789 16.8189C20.1951 17.1255 19.3501 17.4138 18.2501 17.4138C17.3745 17.4246 16.5085 17.2209 15.7213 16.8189C15.4146 16.6578 15.1269 16.4599 14.8638 16.2292L14.8075 16.1768L14.7875 16.1572L14.78 16.1493L14.775 16.1441V16.1428C14.6405 16.0018 14.55 15.8213 14.5156 15.6252C14.4812 15.429 14.5046 15.2266 14.5825 15.0447L17.2226 8.89655H17.0201C16.6388 8.89655 16.265 8.79303 15.935 8.59386L14.3225 7.62945C14.2754 7.60086 14.2219 7.58593 14.1675 7.58621H12.9375V20.0345H16.0625C16.3112 20.0345 16.5497 20.138 16.7255 20.3223C16.9013 20.5066 17.0001 20.7566 17.0001 21.0172C17.0001 21.2779 16.9013 21.5279 16.7255 21.7122C16.5497 21.8965 16.3112 22 16.0625 22H7.93745C7.68881 22 7.45035 21.8965 7.27453 21.7122C7.09871 21.5279 6.99994 21.2779 6.99994 21.0172C6.99994 20.7566 7.09871 20.5066 7.27453 20.3223C7.45035 20.138 7.68881 20.0345 7.93745 20.0345H11.0625V7.58621H9.83247C9.77806 7.58593 9.72456 7.60086 9.67747 7.62945L8.0662 8.59517C7.73495 8.79172 7.3612 8.89655 6.97994 8.89655H6.77744L9.41747 15.0447C9.49545 15.2266 9.5188 15.429 9.48441 15.6252C9.45003 15.8213 9.35954 16.0018 9.22497 16.1428L8.56246 15.4483L9.22372 16.1441L9.22247 16.1467L9.21997 16.1493L9.21247 16.1572L9.19247 16.1768L9.13622 16.2292C8.87371 16.4599 8.58496 16.6577 8.27871 16.8189C7.69495 17.1255 6.84994 17.4138 5.74993 17.4138C4.87431 17.4246 4.00838 17.2209 3.22115 16.8189C2.9145 16.6578 2.62673 16.4599 2.36364 16.2292L2.30739 16.1768L2.28739 16.1572L2.27989 16.1493L2.27489 16.1441V16.1428C2.14031 16.0018 2.04982 15.8213 2.01544 15.6252C1.98106 15.429 2.00441 15.2266 2.08238 15.0447L4.72241 8.89655H4.18741C3.93877 8.89655 3.70031 8.79301 3.52449 8.60871C3.34867 8.42441 3.2499 8.17444 3.2499 7.91379C3.2499 7.65315 3.34867 7.40318 3.52449 7.21888C3.70031 7.03457 3.93877 6.93103 4.18741 6.93103H6.97994C7.03475 6.93129 7.08865 6.91638 7.13619 6.88779L8.74621 5.92207C9.07747 5.72552 9.45122 5.62069 9.83247 5.62069H11.0625V3.98276C11.0625 3.72211 11.1613 3.47215 11.3371 3.28784C11.5129 3.10354 11.7514 3 12 3C12.2486 3 12.4871 3.10354 12.6629 3.28784C12.8387 3.47215 12.9375 3.72211 12.9375 3.98276ZM16.6188 15.0906C16.9751 15.2674 17.5163 15.4483 18.2501 15.4483C18.9838 15.4483 19.5251 15.2674 19.8813 15.0906L18.2501 11.2906L16.6188 15.0906ZM4.11866 15.0906C4.47491 15.2674 5.01617 15.4483 5.74993 15.4483C6.48369 15.4483 7.02494 15.2674 7.3812 15.0906L5.74993 11.2906L4.11866 15.0906Z" fill="white"/>
</svg>
