<svg width="24" height="24" viewBox="0 0 24 24" fill="none" xmlns="http://www.w3.org/2000/svg">
<path d="M20.7633 12.5086C21.157 11.9883 21.375 11.3508 21.375 10.6875C21.375 9.63517 20.7867 8.63907 19.8398 8.08361C19.5961 7.94063 19.3185 7.86537 19.0359 7.86564H13.4156L13.5563 4.98517C13.5891 4.28907 13.343 3.62814 12.8648 3.12423C12.6302 2.87586 12.3471 2.67824 12.0331 2.5436C11.7191 2.40896 11.3807 2.34015 11.0391 2.34142C9.82031 2.34142 8.74219 3.16173 8.41875 4.33595L6.40547 11.625H3.375C2.96016 11.625 2.625 11.9602 2.625 12.375V20.9063C2.625 21.3211 2.96016 21.6563 3.375 21.6563H17.468C17.6836 21.6563 17.8945 21.6141 18.0891 21.5297C19.2047 21.0539 19.9242 19.9641 19.9242 18.7547C19.9242 18.4594 19.882 18.1688 19.7977 17.8875C20.1914 17.3672 20.4094 16.7297 20.4094 16.0664C20.4094 15.7711 20.3672 15.4805 20.2828 15.1992C20.6766 14.6789 20.8945 14.0414 20.8945 13.3781C20.8898 13.0828 20.8477 12.7899 20.7633 12.5086ZM4.3125 19.9688V13.3125H6.21094V19.9688H4.3125ZM19.2281 11.6953L18.7148 12.1406L19.0406 12.736C19.148 12.9321 19.2036 13.1522 19.2023 13.3758C19.2023 13.7625 19.0336 14.1305 18.743 14.3836L18.2297 14.8289L18.5555 15.4242C18.6628 15.6203 18.7185 15.8405 18.7172 16.0641C18.7172 16.4508 18.5484 16.8188 18.2578 17.0719L17.7445 17.5172L18.0703 18.1125C18.1776 18.3086 18.2333 18.5288 18.232 18.7524C18.232 19.2774 17.9227 19.7508 17.4445 19.9664H7.71094V13.2375L10.043 4.78829C10.1031 4.57173 10.2322 4.38067 10.4107 4.24407C10.5891 4.10746 10.8073 4.03275 11.032 4.03126C11.2102 4.03126 11.3859 4.08282 11.5266 4.18829C11.7586 4.36173 11.8828 4.62423 11.8687 4.90314L11.6437 9.55314H19.0125C19.4297 9.80861 19.6875 10.2399 19.6875 10.6875C19.6875 11.0742 19.5188 11.4399 19.2281 11.6953Z" fill="white"/>
</svg>
