<svg width="28" height="28" viewBox="0 0 28 28" fill="none" xmlns="http://www.w3.org/2000/svg">
<path d="M22.4811 17.7828C22.4811 22.3426 18.6841 26.0391 14.0003 26.0391C9.3165 26.0391 5.51953 22.3426 5.51953 17.7828C5.51953 13.223 8.7503 9.53982 14.0003 3.125C19.2791 9.39976 22.4811 13.223 22.4811 17.7828Z" fill="white"/>
<path fill-rule="evenodd" clip-rule="evenodd" d="M13.9783 0L15.5869 1.91207C18.1867 5.00225 20.3984 7.63122 21.9408 10.0712C23.5147 12.5609 24.5 15.0145 24.5 17.7829C24.5 23.421 19.8038 28 14 28C8.19625 28 3.5 23.421 3.5 17.7829C3.5 15.0056 4.49941 12.5834 6.07478 10.1162C7.45052 7.96177 9.36461 5.62887 11.593 2.91289C11.8639 2.58273 12.1394 2.2469 12.4192 1.90505L13.9783 0ZM15.306 4.68067C19.8023 10.0581 22.4808 13.6124 22.4808 17.7829C22.4808 22.3427 18.6838 26.0391 14 26.0391C9.3162 26.0391 5.51923 22.3427 5.51923 17.7829C5.51923 13.6084 8.22709 10.1686 12.7132 4.69484C12.8671 4.50698 13.0232 4.31672 13.1813 4.12395C13.4484 3.79833 13.7214 3.46555 14 3.12508C14.4507 3.66082 14.8863 4.17868 15.306 4.68067Z" fill="url(#paint0_linear_464_1056)"/>
<path d="M13.9993 26.0394C18.6831 26.0394 22.4801 22.3429 22.4801 17.7831C22.4801 15.3344 21.5567 13.0982 19.8841 10.5806C15.9882 12.3851 12.8962 15.5625 11.2717 19.4682C10.0388 22.4324 6.67652 19.1669 5.51953 17.9097C5.58902 22.4111 9.35894 26.0394 13.9993 26.0394Z" fill="url(#paint1_linear_464_1056)"/>
<path d="M13.9996 26.0393C18.6834 26.0393 22.4804 22.3428 22.4804 17.783C22.4804 16.1353 22.0623 14.5838 21.2792 12.978C16.3014 15.2027 12.8457 20.089 12.8457 25.759C12.8457 25.8274 12.8462 25.8956 12.8472 25.9637C13.224 26.0135 13.6087 26.0393 13.9996 26.0393Z" fill="white"/>
<defs>
<linearGradient id="paint0_linear_464_1056" x1="14" y1="0" x2="14" y2="28" gradientUnits="userSpaceOnUse">
<stop stop-color="#5CC2D0"/>
<stop offset="1" stop-color="#2F839D"/>
</linearGradient>
<linearGradient id="paint1_linear_464_1056" x1="13.9799" y1="10.5806" x2="13.9799" y2="26.0394" gradientUnits="userSpaceOnUse">
<stop stop-color="#61CE6C"/>
<stop offset="1" stop-color="#00B412"/>
</linearGradient>
</defs>
</svg>
