<svg width="32" height="32" viewBox="0 0 32 32" fill="none" xmlns="http://www.w3.org/2000/svg">
<path fill-rule="evenodd" clip-rule="evenodd" d="M25.0197 7.16829C25.308 7.04695 25.6236 7.0051 25.9335 7.0471C26.2435 7.08909 26.5366 7.21341 26.7822 7.40709C27.0278 7.60078 27.217 7.85676 27.3301 8.14839C27.4433 8.44002 27.4761 8.75664 27.4254 9.06529L24.7794 25.1151C24.5227 26.6633 22.824 27.5511 21.4042 26.78C20.2165 26.1348 18.4525 25.1408 16.8659 24.1036C16.0725 23.5845 13.6424 21.922 13.941 20.739C14.1977 19.7275 18.281 15.9265 20.6144 13.6666C21.5302 12.7788 21.1125 12.2666 20.031 13.0833C17.3442 15.111 13.0334 18.1945 11.6077 19.0625C10.35 19.8278 9.69437 19.9585 8.91037 19.8278C7.48004 19.5898 6.15354 19.2211 5.07087 18.772C3.60787 18.1653 3.67904 16.154 5.0697 15.5683L25.0197 7.16829Z" fill="#21A1CA"/>
</svg>
