<svg width="32" height="32" viewBox="0 0 32 32" fill="none" xmlns="http://www.w3.org/2000/svg">
<path d="M5.00441 27L6.49161 21.5352C5.51167 19.8553 4.99682 17.9448 5.00001 16C5.00001 9.9247 9.92471 5 16 5C22.0753 5 27 9.9247 27 16C27 22.0753 22.0753 27 16 27C14.0561 27.0031 12.1463 26.4887 10.467 25.5095L5.00441 27ZM12.0301 10.8388C11.8881 10.8476 11.7493 10.885 11.622 10.9488C11.5027 11.0164 11.3938 11.1008 11.2986 11.1996C11.1666 11.3239 11.0918 11.4317 11.0115 11.5362C10.605 12.0653 10.3863 12.7148 10.39 13.382C10.3922 13.921 10.533 14.4457 10.753 14.9363C11.2029 15.9285 11.9432 16.979 12.9211 17.9525C13.1565 18.1868 13.3864 18.4222 13.6339 18.6411C14.8476 19.7097 16.294 20.4803 17.8579 20.8917L18.4838 20.9874C18.6873 20.9984 18.8908 20.983 19.0954 20.9731C19.4158 20.9566 19.7286 20.8698 20.0117 20.719C20.1558 20.6448 20.2963 20.564 20.433 20.477C20.433 20.477 20.4803 20.4462 20.5705 20.378C20.719 20.268 20.8103 20.1899 20.9335 20.0612C21.0248 19.9666 21.104 19.8555 21.1645 19.729C21.2503 19.5497 21.3361 19.2076 21.3713 18.9227C21.3977 18.7049 21.39 18.5861 21.3867 18.5124C21.3823 18.3947 21.2844 18.2726 21.1777 18.2209L20.5375 17.9338C20.5375 17.9338 19.5805 17.5169 18.9964 17.2507C18.9348 17.2238 18.8688 17.2086 18.8017 17.2056C18.7264 17.1979 18.6504 17.2063 18.5787 17.2304C18.507 17.2545 18.4412 17.2937 18.3859 17.3453V17.3431C18.3804 17.3431 18.3067 17.4058 17.5114 18.3694C17.4658 18.4307 17.4029 18.4771 17.3308 18.5026C17.2587 18.528 17.1807 18.5314 17.1066 18.5124C17.0349 18.4932 16.9647 18.469 16.8965 18.4398C16.7601 18.3826 16.7128 18.3606 16.6193 18.3199L16.6138 18.3177C15.9845 18.0429 15.4019 17.6718 14.8868 17.2177C14.7482 17.0967 14.6195 16.9647 14.4875 16.8371C14.0547 16.4227 13.6776 15.9538 13.3655 15.4423L13.3006 15.3378C13.254 15.2676 13.2163 15.1918 13.1884 15.1123C13.1466 14.9506 13.2555 14.8208 13.2555 14.8208C13.2555 14.8208 13.5228 14.5282 13.6471 14.3698C13.7506 14.2381 13.8472 14.1012 13.9364 13.9595C14.0662 13.7505 14.1069 13.536 14.0387 13.3699C13.7307 12.6175 13.4117 11.8684 13.0839 11.1248C13.019 10.9774 12.8265 10.8718 12.6516 10.8509C12.5922 10.8443 12.5328 10.8377 12.4734 10.8333C12.3257 10.826 12.1777 10.8285 12.0301 10.8388Z" fill="#18B528"/>
</svg>
