<svg width="104" height="104" viewBox="0 0 104 104" fill="none" xmlns="http://www.w3.org/2000/svg">
<g clip-path="url(#clip0_273_4749)">
<circle cx="52" cy="52" r="52" fill="url(#paint0_linear_273_4749)"/>
<path fill-rule="evenodd" clip-rule="evenodd" d="M70.6439 53.3422C70.8785 52.9325 71.0012 52.4701 71 52C71.0012 51.5299 70.8785 51.0675 70.6439 50.6578C70.4093 50.2481 70.0708 49.905 69.6614 49.6618L44.2836 34.4076C43.8558 34.1501 43.3657 34.0096 42.8641 34.0005C42.3625 33.9913 41.8675 34.114 41.4302 34.3557C40.9971 34.5936 40.6363 34.9406 40.385 35.361C40.1336 35.7813 40.0007 36.2599 40 36.7475V67.2525C40.0007 67.7401 40.1336 68.2187 40.385 68.639C40.6363 69.0594 40.9971 69.4064 41.4302 69.6443C41.8675 69.886 42.3625 70.0087 42.8641 69.9995C43.3657 69.9904 43.8558 69.8499 44.2836 69.5924L69.6614 54.3382C70.0708 54.095 70.4093 53.7519 70.6439 53.3422Z" fill="white"/>
<circle cx="52" cy="52" r="44.5" stroke="white" stroke-width="3"/>
</g>
<defs>
<linearGradient id="paint0_linear_273_4749" x1="52.0494" y1="-41.4485" x2="52.0494" y2="136.322" gradientUnits="userSpaceOnUse">
<stop stop-color="#3BDDF3"/>
<stop offset="1" stop-color="#004E96"/>
</linearGradient>
<clipPath id="clip0_273_4749">
<rect width="104" height="104" rx="52" fill="white"/>
</clipPath>
</defs>
</svg>
