<svg width="32" height="32" viewBox="0 0 32 32" fill="none" xmlns="http://www.w3.org/2000/svg">
<path d="M25.3475 16.5279C25.7675 15.9891 26 15.329 26 14.6422C26 13.5525 25.3725 12.5211 24.3625 11.9459C24.1025 11.7978 23.8064 11.7199 23.505 11.7202H17.51L17.66 8.73755C17.695 8.01676 17.4325 7.33238 16.9225 6.8106C16.6722 6.55342 16.3703 6.34879 16.0353 6.20937C15.7003 6.06995 15.3395 5.9987 14.975 6.00002C13.675 6.00002 12.525 6.84943 12.18 8.0653L10.0325 15.6129H6.8C6.3575 15.6129 6 15.96 6 16.3895V25.2234C6 25.653 6.3575 26 6.8 26H21.8325C22.0625 26 22.2875 25.9563 22.495 25.8689C23.685 25.3763 24.4525 24.2478 24.4525 22.9955C24.4525 22.6897 24.4075 22.3888 24.3175 22.0976C24.7375 21.5588 24.97 20.8987 24.97 20.2119C24.97 19.9061 24.925 19.6052 24.835 19.3139C25.255 18.7752 25.4875 18.115 25.4875 17.4282C25.4825 17.1224 25.4375 16.8191 25.3475 16.5279ZM7.8 24.2526V17.3603H9.825V24.2526H7.8ZM23.71 15.6857L23.1625 16.1468L23.51 16.7633C23.6245 16.9663 23.6838 17.1943 23.6825 17.4258C23.6825 17.8262 23.5025 18.2073 23.1925 18.4694L22.645 18.9305L22.9925 19.5469C23.107 19.75 23.1663 19.978 23.165 20.2094C23.165 20.6099 22.985 20.9909 22.675 21.253L22.1275 21.7141L22.475 22.3305C22.5895 22.5336 22.6488 22.7616 22.6475 22.9931C22.6475 23.5367 22.3175 24.0269 21.8075 24.2502H11.425V17.2826L13.9125 8.53369C13.9766 8.30945 14.1143 8.11161 14.3047 7.97016C14.4951 7.8287 14.7278 7.75135 14.9675 7.7498C15.1575 7.7498 15.345 7.8032 15.495 7.91241C15.7425 8.092 15.875 8.36381 15.86 8.65261L15.62 13.4676H23.48C23.925 13.7321 24.2 14.1786 24.2 14.6422C24.2 15.0426 24.02 15.4212 23.71 15.6857Z" fill="#003A67"/>
</svg>
