<svg width="108" height="48" viewBox="0 0 108 48" fill="none" xmlns="http://www.w3.org/2000/svg">
<g clip-path="url(#clip0_194_504)">
<path fill-rule="evenodd" clip-rule="evenodd" d="M71.4016 33.6187H67.4728V31.887H66.3905H55.5377V16.494H59.5662V28.6701H64.9475V16.494H69.0361V28.7302H71.5313L71.4016 33.6187ZM87.3108 22.2664H83.0719C83.0418 21.9156 82.9617 21.5974 82.8314 21.3118C82.7061 21.0262 82.5308 20.7807 82.3053 20.5753C82.0848 20.3648 81.8167 20.2045 81.5011 20.0942C81.1854 19.979 80.8272 19.9214 80.4263 19.9214C79.7248 19.9214 79.1311 20.0917 78.6451 20.4325C78.1641 20.7732 77.7983 21.2617 77.5478 21.8981C77.3022 22.5345 77.1795 23.2986 77.1795 24.1905C77.1795 25.1325 77.3048 25.9217 77.5553 26.5581C77.8108 27.1894 78.1791 27.6654 78.6601 27.9861C79.1411 28.3018 79.7198 28.4596 80.3963 28.4596C80.7821 28.4596 81.1278 28.412 81.4334 28.3168C81.7391 28.2166 82.0046 28.0738 82.2301 27.8884C82.4556 27.703 82.6385 27.48 82.7788 27.2195C82.9241 26.9539 83.0218 26.6558 83.0719 26.3251L87.3108 26.3551C87.2607 27.0065 87.0778 27.6704 86.7622 28.3469C86.4465 29.0183 85.9981 29.6397 85.4168 30.2109C84.8406 30.7771 84.1266 31.2331 83.2748 31.5788C82.423 31.9246 81.4334 32.0974 80.3061 32.0974C78.8931 32.0974 77.6254 31.7943 76.5031 31.188C75.3857 30.5817 74.5014 29.6898 73.85 28.5122C73.2036 27.3347 72.8804 25.8941 72.8804 24.1905C72.8804 22.4768 73.2111 21.0337 73.8725 19.8612C74.5339 18.6837 75.4258 17.7943 76.5482 17.193C77.6705 16.5867 78.9232 16.2836 80.3061 16.2836C81.2781 16.2836 82.1725 16.4164 82.9892 16.6819C83.8059 16.9475 84.5224 17.3358 85.1387 17.8469C85.755 18.353 86.2511 18.9768 86.6269 19.7184C87.0027 20.46 87.2306 21.3093 87.3108 22.2664ZM41.6484 16.494V31.887H45.8272V27.3172H48.1421C49.3146 27.3172 50.3392 27.0992 51.2161 26.6633C52.0979 26.2274 52.7819 25.606 53.2679 24.7993C53.7589 23.9926 54.0044 23.038 54.0044 21.9357C54.0044 20.8433 53.7664 19.8888 53.2904 19.072C52.8144 18.2553 52.148 17.6214 51.2912 17.1705C50.4344 16.7195 49.4348 16.494 48.2924 16.494H41.6484ZM45.8272 24.0702H47.3003C47.7914 24.0702 48.2098 23.9851 48.5555 23.8147C48.9062 23.6393 49.1743 23.3913 49.3597 23.0706C49.5501 22.7499 49.6453 22.3716 49.6453 21.9357C49.6453 21.4947 49.5501 21.1189 49.3597 20.8083C49.1743 20.4926 48.9062 20.2521 48.5555 20.0867C48.2098 19.9163 47.7914 19.8312 47.3003 19.8312H45.8272V24.0702ZM94.4076 16.494H89.2067V31.887H93.2953V22.9278H93.4155L96.8428 31.7667H99.3079L102.735 22.9879H102.855V31.887H106.944V16.494H101.743L98.1655 25.2127H97.9852L94.4076 16.494Z" fill="url(#paint0_linear_194_504)"/>
<path d="M45.329 36.5748V41.4656H44.5925V37.2053H42.2873V41.4656H41.5508V36.5748H45.329Z" fill="#2F839D"/>
<path d="M46.8725 41.4656H46.0882L47.8505 36.5748H48.7042L50.4666 41.4656H49.6822L48.2977 37.4632H48.2594L46.8725 41.4656ZM47.004 39.5503H49.5483V40.1712H47.004V39.5503Z" fill="#2F839D"/>
<path d="M51.1738 41.4656V36.5748H52.9194C53.3004 36.5748 53.616 36.6441 53.8663 36.7826C54.1166 36.9211 54.3039 37.1105 54.4283 37.3509C54.5526 37.5897 54.6148 37.8588 54.6148 38.1581C54.6148 38.459 54.5518 38.7296 54.4259 38.97C54.3015 39.2089 54.1134 39.3983 53.8615 39.5384C53.6112 39.6769 53.2964 39.7462 52.917 39.7462H51.7166V39.1205H52.85C53.0908 39.1205 53.286 39.0791 53.4359 38.9963C53.5857 38.9119 53.6957 38.7973 53.7659 38.6524C53.836 38.5076 53.8711 38.3428 53.8711 38.1581C53.8711 37.9734 53.836 37.8094 53.7659 37.6662C53.6957 37.5229 53.5849 37.4106 53.4335 37.3294C53.2836 37.2482 53.086 37.2076 52.8405 37.2076H51.9127V41.4656H51.1738Z" fill="#2F839D"/>
<path d="M55.2395 37.21V36.5748H59.0296V37.21H57.5016V41.4656H56.7651V37.21H55.2395Z" fill="#2F839D"/>
<path d="M59.8672 41.4656V36.5748H60.6061V38.7002H63.0475V36.5748H63.7888V41.4656H63.0475V39.333H60.6061V41.4656H59.8672Z" fill="#2F839D"/>
<path d="M64.8649 41.4656V36.5748H67.9352V37.21H65.6038V38.7002H67.775V39.333H65.6038V40.8304H67.9639V41.4656H64.8649Z" fill="#2F839D"/>
<path d="M68.9222 41.4656V36.5748H70.6678C71.0488 36.5748 71.3645 36.6441 71.6148 36.7826C71.8651 36.9211 72.0524 37.1105 72.1767 37.3509C72.3011 37.5897 72.3632 37.8588 72.3632 38.1581C72.3632 38.459 72.3003 38.7296 72.1743 38.97C72.05 39.2089 71.8619 39.3983 71.61 39.5384C71.3597 39.6769 71.0449 39.7462 70.6654 39.7462H69.465V39.1205H70.5985C70.8392 39.1205 71.0345 39.0791 71.1843 38.9963C71.3342 38.9119 71.4442 38.7973 71.5143 38.6524C71.5845 38.5076 71.6196 38.3428 71.6196 38.1581C71.6196 37.9734 71.5845 37.8094 71.5143 37.6662C71.4442 37.5229 71.3334 37.4106 71.182 37.3294C71.0321 37.2482 70.8344 37.2076 70.5889 37.2076H69.6611V41.4656H68.9222Z" fill="#2F839D"/>
<path d="M77.297 38.1653H76.5509C76.5222 38.0061 76.4688 37.866 76.3907 37.745C76.3126 37.624 76.2169 37.5213 76.1037 37.4369C75.9906 37.3525 75.8638 37.2888 75.7235 37.2459C75.5848 37.2029 75.4374 37.1814 75.2812 37.1814C74.999 37.1814 74.7463 37.2522 74.5231 37.3939C74.3015 37.5356 74.1262 37.7434 73.9971 38.0172C73.8695 38.291 73.8058 38.6254 73.8058 39.0202C73.8058 39.4182 73.8695 39.7541 73.9971 40.028C74.1262 40.3018 74.3023 40.5088 74.5255 40.6489C74.7487 40.789 74.9998 40.859 75.2788 40.859C75.4334 40.859 75.5801 40.8383 75.7188 40.7969C75.859 40.7539 75.9858 40.6911 76.099 40.6083C76.2121 40.5255 76.3078 40.4244 76.3859 40.305C76.4656 40.184 76.5206 40.0455 76.5509 39.8895L77.297 39.8918C77.2571 40.1322 77.1798 40.3535 77.065 40.5557C76.9518 40.7563 76.806 40.9299 76.6274 41.0763C76.4505 41.2212 76.248 41.3334 76.0201 41.4131C75.7921 41.4927 75.5434 41.5325 75.274 41.5325C74.8499 41.5325 74.4721 41.4322 74.1405 41.2316C73.8089 41.0294 73.5475 40.7404 73.3562 40.3647C73.1665 39.989 73.0716 39.5408 73.0716 39.0202C73.0716 38.498 73.1673 38.0498 73.3586 37.6757C73.5499 37.3 73.8113 37.0118 74.1429 36.8112C74.4745 36.609 74.8515 36.5079 75.274 36.5079C75.5338 36.5079 75.7761 36.5453 76.0009 36.6202C76.2273 36.6934 76.4305 36.8017 76.6107 36.945C76.7908 37.0866 76.9399 37.2602 77.0578 37.4656C77.1758 37.6693 77.2555 37.9026 77.297 38.1653Z" fill="#2F839D"/>
<path d="M81.0865 41.4656L79.4413 39.2733H78.92V41.4656H78.1811V36.5748H78.92V38.6405H79.1616L81.0124 36.5748H81.9139L79.9554 38.7647L81.988 41.4656H81.0865Z" fill="#2F839D"/>
<path d="M83.0862 41.4656H82.3019L84.0642 36.5748H84.9179L86.6802 41.4656H85.8959L84.5114 37.4632H84.4731L83.0862 41.4656ZM83.2177 39.5503H85.762V40.1712H83.2177V39.5503Z" fill="#2F839D"/>
<path d="M90.8595 41.4656H90.1183V37.2076H89.1905C88.9481 37.2076 88.7513 37.2443 88.5998 37.3175C88.4484 37.3891 88.3376 37.4926 88.2674 37.6279C88.1973 37.7633 88.1622 37.9233 88.1622 38.1079C88.1622 38.291 88.1973 38.4479 88.2674 38.5784C88.3376 38.7089 88.4476 38.8085 88.5974 38.8769C88.7473 38.9454 88.9426 38.9796 89.1833 38.9796H90.4387V39.6148H89.1139C88.7361 39.6148 88.4213 39.5519 88.1694 39.4262C87.9191 39.3004 87.731 39.1245 87.6051 38.8984C87.4807 38.6707 87.4185 38.4073 87.4185 38.1079C87.4185 37.8071 87.4807 37.542 87.6051 37.3127C87.7294 37.0819 87.9167 36.9012 88.167 36.7706C88.4189 36.6401 88.7337 36.5748 89.1115 36.5748H90.8595V41.4656ZM88.442 39.259H89.2598L88.0714 41.4656H87.232L88.442 39.259Z" fill="#2F839D"/>
<path d="M45.329 43.2996V48.1904H44.5925V43.9301H42.2873V48.1904H41.5508V43.2996H45.329Z" fill="#2F839D"/>
<path d="M46.4588 48.1904V43.2996H48.2044C48.5854 43.2996 48.9011 43.3689 49.1514 43.5074C49.4017 43.6459 49.589 43.8354 49.7133 44.0758C49.8377 44.3146 49.8998 44.5836 49.8998 44.8829C49.8998 45.1838 49.8369 45.4545 49.7109 45.6949C49.5866 45.9337 49.3985 46.1231 49.1466 46.2632C48.8963 46.4017 48.5815 46.471 48.202 46.471H47.0016V45.8453H48.1351C48.3758 45.8453 48.5711 45.8039 48.7209 45.7211C48.8708 45.6368 48.9808 45.5221 49.0509 45.3773C49.1211 45.2324 49.1562 45.0676 49.1562 44.8829C49.1562 44.6983 49.1211 44.5343 49.0509 44.391C48.9808 44.2477 48.87 44.1355 48.7186 44.0543C48.5687 43.9731 48.371 43.9325 48.1255 43.9325H47.1977V48.1904H46.4588Z" fill="#2F839D"/>
<path d="M55.0201 45.745C55.0201 46.2672 54.9244 46.7162 54.7331 47.0919C54.5418 47.466 54.2796 47.7542 53.9464 47.9564C53.6148 48.157 53.2378 48.2573 52.8154 48.2573C52.3913 48.2573 52.0127 48.157 51.6795 47.9564C51.3479 47.7542 51.0865 47.4652 50.8952 47.0895C50.7039 46.7138 50.6082 46.2656 50.6082 45.745C50.6082 45.2228 50.7039 44.7747 50.8952 44.4005C51.0865 44.0248 51.3479 43.7367 51.6795 43.5361C52.0127 43.3339 52.3913 43.2328 52.8154 43.2328C53.2378 43.2328 53.6148 43.3339 53.9464 43.5361C54.2796 43.7367 54.5418 44.0248 54.7331 44.4005C54.9244 44.7747 55.0201 45.2228 55.0201 45.745ZM54.2884 45.745C54.2884 45.347 54.2238 45.0119 54.0947 44.7396C53.9671 44.4658 53.7918 44.2588 53.5686 44.1187C53.347 43.9771 53.0959 43.9062 52.8154 43.9062C52.5332 43.9062 52.2813 43.9771 52.0597 44.1187C51.8381 44.2588 51.6628 44.4658 51.5337 44.7396C51.4061 45.0119 51.3424 45.347 51.3424 45.745C51.3424 46.143 51.4061 46.479 51.5337 46.7528C51.6628 47.025 51.8381 47.232 52.0597 47.3737C52.2813 47.5138 52.5332 47.5838 52.8154 47.5838C53.0959 47.5838 53.347 47.5138 53.5686 47.3737C53.7918 47.232 53.9671 47.025 54.0947 46.7528C54.2238 46.479 54.2884 46.143 54.2884 45.745Z" fill="#2F839D"/>
<path d="M58.9949 43.2996V43.9349H56.6802V48.1904H55.9413V43.2996H58.9949Z" fill="#2F839D"/>
<path d="M59.8277 48.1904V43.2996H61.5733C61.9543 43.2996 62.27 43.3689 62.5202 43.5074C62.7705 43.6459 62.9578 43.8354 63.0822 44.0758C63.2065 44.3146 63.2687 44.5836 63.2687 44.8829C63.2687 45.1838 63.2057 45.4545 63.0798 45.6949C62.9555 45.9337 62.7673 46.1231 62.5155 46.2632C62.2652 46.4017 61.9503 46.471 61.5709 46.471H60.3705V45.8453H61.504C61.7447 45.8453 61.94 45.8039 62.0898 45.7211C62.2397 45.6368 62.3497 45.5221 62.4198 45.3773C62.49 45.2324 62.525 45.0676 62.525 44.8829C62.525 44.6983 62.49 44.5343 62.4198 44.391C62.3497 44.2477 62.2389 44.1355 62.0874 44.0543C61.9376 43.9731 61.7399 43.9325 61.4944 43.9325H60.5666V48.1904H59.8277Z" fill="#2F839D"/>
<path d="M64.0291 48.1904H63.2448L65.0071 43.2996H65.8608L67.6232 48.1904H66.8388L65.4543 44.188H65.4161L64.0291 48.1904ZM64.1606 46.2752H66.7049V46.8961H64.1606V46.2752Z" fill="#2F839D"/>
<path d="M68.3304 43.2996H69.2271L70.7862 47.1015H70.8436L72.4027 43.2996H73.2994V48.1904H72.5964V44.6513H72.5509L71.1066 48.1833H70.5232L69.0788 44.6489H69.0334V48.1904H68.3304V43.2996Z" fill="#2F839D"/>
<path d="M74.3737 43.2996H75.2704L76.8295 47.1015H76.8869L78.446 43.2996H79.3427V48.1904H78.6397V44.6513H78.5942L77.1499 48.1833H76.5665L75.1221 44.6489H75.0767V48.1904H74.3737V43.2996Z" fill="#2F839D"/>
<path d="M80.8306 48.1904H80.0463L81.8087 43.2996H82.6623L84.4247 48.1904H83.6404L82.2558 44.188H82.2176L80.8306 48.1904ZM80.9622 46.2752H83.5065V46.8961H80.9622V46.2752Z" fill="#2F839D"/>
<path d="M32.8843 30.5687C32.8843 38.407 26.546 44.7612 18.7273 44.7612C10.9086 44.7612 4.57031 38.407 4.57031 30.5687C4.57031 22.7305 9.96346 16.3991 18.7273 5.37201C27.5393 16.1583 32.8843 22.7305 32.8843 30.5687Z" fill="white"/>
<path fill-rule="evenodd" clip-rule="evenodd" d="M18.6908 0L21.376 3.28684C25.7158 8.59886 29.4078 13.1181 31.9826 17.3124C34.6098 21.5922 36.2547 25.81 36.2547 30.5687C36.2547 40.2607 28.4152 48.1319 18.7269 48.1319C9.0387 48.1319 1.19922 40.2607 1.19922 30.5687C1.19922 25.7946 2.86755 21.6308 5.49732 17.3898C7.79384 13.6863 10.989 9.67601 14.7089 5.00726C15.1611 4.43971 15.6211 3.86242 16.0881 3.27477L18.6908 0ZM20.9071 8.04605C28.4127 17.2898 32.884 23.3997 32.884 30.5687C32.884 38.407 26.5456 44.7612 18.7269 44.7612C10.9082 44.7612 4.56993 38.407 4.56993 30.5687C4.56993 23.3928 9.09018 17.4798 16.5788 8.07043C16.8358 7.74749 17.0963 7.42043 17.3603 7.08906C17.8061 6.52931 18.2618 5.95727 18.7269 5.372C19.4793 6.29294 20.2064 7.18315 20.9071 8.04605Z" fill="url(#paint1_linear_194_504)"/>
<path d="M18.7276 44.7614C26.5463 44.7614 32.8847 38.4072 32.8847 30.5689C32.8847 26.3596 31.3432 22.5154 28.5512 18.1877C22.0477 21.2897 16.8862 26.7516 14.1744 33.4655C12.1163 38.561 6.50364 32.9476 4.57227 30.7864C4.68827 38.5244 10.9814 44.7614 18.7276 44.7614Z" fill="url(#paint2_linear_194_504)"/>
<path d="M18.727 44.7614C26.5457 44.7614 32.884 38.4072 32.884 30.5689C32.884 27.7365 32.1861 25.0695 30.8788 22.3091C22.5694 26.1334 16.8008 34.5329 16.8008 44.2797C16.8008 44.3971 16.8016 44.5144 16.8033 44.6315C17.4323 44.7171 18.0745 44.7614 18.727 44.7614Z" fill="white"/>
</g>
<defs>
<linearGradient id="paint0_linear_194_504" x1="74.3272" y1="9.37478" x2="74.3272" y2="39.0062" gradientUnits="userSpaceOnUse">
<stop stop-color="#3BDDF3"/>
<stop offset="1" stop-color="#004E96"/>
</linearGradient>
<linearGradient id="paint1_linear_194_504" x1="18.7269" y1="0" x2="18.7269" y2="48.1319" gradientUnits="userSpaceOnUse">
<stop stop-color="#5CC2D0"/>
<stop offset="1" stop-color="#2F839D"/>
</linearGradient>
<linearGradient id="paint2_linear_194_504" x1="18.7419" y1="7.59693" x2="18.7419" y2="53.0201" gradientUnits="userSpaceOnUse">
<stop stop-color="#61CE6C"/>
<stop offset="1" stop-color="#00B412"/>
</linearGradient>
<clipPath id="clip0_194_504">
<rect width="108" height="48" fill="white"/>
</clipPath>
</defs>
</svg>
