<svg width="1280" height="440" viewBox="0 0 1280 440" fill="none" xmlns="http://www.w3.org/2000/svg">
<g clip-path="url(#clip0_365_10376)">
<g clip-path="url(#clip1_365_10376)">
<path d="M183.147 368.171L184.154 367.303L186.233 368.506L187.329 368.52L188.762 367.724L190.132 368.322L193.184 371.823L194.678 372.442L194.794 372.6L197.638 372.184L201.661 372.02L202.734 372.446L207.617 373.156L209.37 375.396L208.016 373.658L208.419 372.305L211.889 371.683L216.254 375.114L219.478 375.785L222.309 377.844L223.368 374.974L222.439 373.117L220.453 371.427L221.884 368.62L224.322 369.278L227.729 373.031L228.467 375.219L232.373 376.249L233.386 374.966L236.136 374.082L239.68 371.237L239.78 371.098L239.098 370.444L235.157 366.133L232.647 361.805L232.526 359.357L231.482 357.723L231.734 355.34L231.451 354.13L231.372 353.198L230.183 352.995L230.629 351.615L231.431 352.116L232.165 350.664L233.094 349.435L232.091 349.316L231.075 349.941L229.312 348.427L229.826 345.724L228.301 344.978L227.43 343.495L226.311 343.599L224.906 343.186L224.63 340.21L225.478 338.829L226.525 338.332L227.097 335.326L228.034 334.151L228.927 332.535L229.961 332.105L230.682 330.338L231.708 329.179L231.959 328.147L232.771 328.597L233.48 329.394L234.239 329.159L234.79 328.283L235.372 329.075L236.324 328.596L237.477 328.792L238.821 328.172L238.701 327.458L237.542 326.81L238.371 326.882C238.371 326.882 238.878 327.298 239.091 327.334C239.304 327.37 240.482 327.242 240.482 327.242L241.151 328.153L241.874 327.722L241.709 326.758L239.484 324.975L240.647 324.93L242.163 325.622L242.822 325.526L244.127 326.078L244.312 325.104L243.592 324.461L244.545 324.554L244.682 323.642L244.055 322.894L245.412 322.882L245.664 322.041L245.877 321.401L245.948 321.413L245.954 321.38L244.089 319.727L241.72 320.052L238.925 317.512L239.379 316.186L242.678 316.748L240.255 310.615L236.938 306.392L231.613 303.959L230.685 305.084L228.308 302.373L229.111 301.227L228.059 298.673L224.757 296.776L226.606 294.179L228.315 289.235L227.238 287.769L227.576 283.684L229.408 283.199L232.21 280.886L232.602 278.821L234.152 277.507L238.014 282.239L238.3 283.813L240.617 285.785L243.34 286.007L243.508 283.487L244.711 282.843L243.966 275.973L246.699 276.144L249.501 276.622L249.872 274.674L248.911 272.985L249.836 271.202L252.681 270.109L253.861 270.258L255.092 268.215L256.565 267.495L258.285 268.274L258.814 266.839L258.667 265.305L259.293 264.32L261.579 266.166L263.481 267.339L263.031 268.354L261.584 269.512L262.297 270.483L264.08 269.868L264.742 268.698L266.065 268.195L265.867 269.618L267.199 268.684L267.635 267.735L269.355 267.838L271.388 266.971L272.959 267.186L273.466 269.526L275.163 271.098L278.446 270.687L279.87 270.999L280.503 272.39L281.487 272.609L282.823 275.021L284.685 275.339L285.725 277.284L287.83 279.411L289.173 279.761L289.651 281.004L289.418 282.905L290.354 283.377L291.774 281.972L291.99 279.877L293.836 279.221L294.721 281.019L297.931 282.051L298.633 283.748L299.897 284.518L302.298 283.35L303.074 280.328L304.919 280.451L305.333 278.945L306.779 278.758L307.536 280.169L308.536 278.953L310.58 278.99L312.649 281.595L312.976 282.57L315.451 282.749L315.529 280.7L316.975 280.513L318.876 281.01L320.027 280.062L321.884 281.471L323.013 282.27L322.25 283.301L320.813 283.732L322.14 285.9L323.612 286.636L324.446 286.293L325.492 287.147L328.122 287.474L330.873 289.572L332.873 289.549L334.068 287.985L334.495 286.411L335.511 285.787L337.899 287.771L340.285 288.42L343.39 287.979L344.465 286.758L345.261 280.255L344.557 279.528L342.016 279.026L340.638 277.508L340.488 276.564L338.631 275.832L337.644 274.571L335.586 274.221L335.663 273.142L335.287 272.038L335.692 271.257L337.288 271.339L337.915 269.677L339.508 268.424L339.422 266.468L338.145 266.059L338.356 264.275L340.794 261.952L343.106 260.578L346.791 260.842L348.121 261.554L349.239 261.069L349.605 259.432L348.009 258.675L346.889 257.149L345.514 256.967L344.303 257.558L342.699 256.556L340.53 256.117L340.553 255.029L341.42 254.518L343.738 254.844L343.382 252.963L341.142 252.894L339.679 252.211L340.651 251.527L340.082 249.42L340.805 248.988L342.689 249.188L343.75 248.329L344.982 248.591L345.38 249.577L347.412 249.681L348.772 251.005L349.602 250.297L349.794 249.289L351.45 248.67L353.001 248.987L353.713 250.634L354.73 249.715L355.131 248.57L358.298 248.191L360.32 248.345L362.69 247.726L365.031 247.934L365.608 247.305L368.173 246.338L370.293 246.647L371.828 245.99L373.092 246.084L374.173 246.754L374.977 246.284L375.249 244.562L376.399 243.909L378.261 244.227L378.711 243.211L379.997 242.512L380.763 243.492L381.96 243.938L383.743 243.324L385.789 243.065L389.907 241.341L390.723 241.48L391.641 241.082L393.766 241.08L395.235 239.805L396.298 240.281L398.693 240.203L398.864 239.019L398.284 237.638L399.313 237.328L401.642 237.603L402.442 236.093L404.159 235.536L405.191 235.886L406.584 235.69L408.556 236.875L410.959 237.042L412.768 238.702L414.832 239.019L416.877 238.571L418.622 239.024L418.948 241.16L419.526 241.778L419.828 243.563L420.745 245.193L421.786 245.977L421.806 246.934L421.094 248.268L421.138 249.87L420.913 250.473L419.498 250.596L419.988 252.257L420.883 253.138L422.988 252.37L424.12 253.638L425.142 253.465L425.758 251.958L426.923 251.706L427.178 253.448L428.242 253.629L428.698 252.39L428.372 250.635L429.007 250.38L431.583 252.916L431.418 255.609L432.15 257.831L433.194 257.923L434.679 256.858L433.801 256.275L433.515 255.273L435.486 255.211L438.451 257.241L439.569 257.432L441.038 256.642L441.899 257.309L440.887 258.783L439.653 259.492L439.212 261.618L440.091 263.258L441.295 263.377L442.509 262.388L444.573 262.22L447.879 263.615L448.611 264.294L449.809 263.771L449.826 261.85L451.563 261.574L454.146 261.667L455.958 260.901L456.953 259.615L458.457 258.831L458.847 257.65L461.101 256.196L462.556 255.959L464.135 254.876L466.087 254.723L468.429 254.447L469.296 255.184L468.968 256.618L467.244 257.885L465.818 257.971L466.28 259.298L479.72 272.977L496.141 301.707L498.316 301.731L499.88 301.113L500.438 300.203L500.079 299.778L500.367 297.972L501.834 297.581L504.103 299.129L503.641 300.212L503.586 301.364L505.46 302.203L506.471 303.624L507.99 303.917L509.319 303.381L510.801 303.391L512.801 304.91L514.813 304.439L516.193 304.986L517.996 304.652L518.562 303.986L518.157 303.033L518.622 302.228L521.568 302.331L524.619 302.851L527.12 303.953L529.336 306.168L530.287 308.775L530.816 310.806L531.655 311.019L533.375 311.797L535.167 313.35L535.788 313.456L536.956 314.245L536.866 315.2L536.397 315.935L536.183 317.251L536.437 318.42L537.124 319.335L537.417 319.818L538.203 319.917L539.796 320.882L540.997 321.694L541.599 321.034L543.116 320.564L547.244 321.008L549.209 320.788L550.346 319.526L552.2 318.923L553.063 319.486L551.935 321.374L552.177 322.802L553.364 323.299L554.994 325.223L557.374 326.478L557.693 327.018L558.757 327.199L560.38 328.1L561.125 328.227L561.125 328.036L563.062 325.264L564.767 324.774L568.726 325.622L569.45 324.896L571.23 323.622L574.141 323.148L574.578 321.524L575.511 319.984L577.938 319.358L578.223 318.245L579.905 317.197L581.409 317.089L582.883 315.694L583.752 315.166L582.954 314.354L583.125 313.169L583.829 312.544L586.538 313.803L587.839 313.418L589.11 311.451L590.578 311.146L593.696 311.314L595.461 311.181L596.889 311.373L598.853 311.829L600.313 311.28L600.743 311.423L601.549 312.964L601.548 313.935L602.349 315.111L604.181 315.302L605.161 315.157L606.696 315.558L608.165 314.959L610.929 315.256L611.25 316.646L611.311 318.06L611.607 319.203L615.409 322.225L616.787 323.743L619.635 325.615L620.865 325.218L622.715 324.927L624.823 323.951L626.348 324.021L627.882 324.715L629.026 325.829L630.471 325.642L634.204 326.33L635.516 327.23L637.162 327.337L637.615 326.981L639.171 327.558L642.165 327.704L644.248 325.511L643.5 324.344L641.975 322.923L642.516 320.467L643.517 317.899L643.399 316.786L641.887 315.974L641.219 314.768L638.786 313.695L638.545 311.591L639.361 307.587L641.457 306.003L641.693 304.761L642.82 303.549L644.329 303.321L645.144 303.754L646.023 302.5L645.767 301.052L646.258 299.819L647.513 299.096L649.182 299.468L650.194 300.403L652.356 301.361L654.464 302.795L654.675 303.42L656.54 304.397L658.672 304.933L661.81 305.381L662.858 306.323L663.533 307.201L665.712 307.78L666.813 308.54L668.276 309.032L671.935 309.534L673.198 310.304L673.573 311.702L673.372 312.76L674.027 314.033L673.804 315.209L674.433 316.234L674.954 318.213L674.602 319.678L675.51 320.682L676.562 320.931L678.022 322.688L678.35 323.662L680.755 324.783L683.167 326.546L684.378 326.822L685.107 326.357L687.71 326.922L689.045 326.352L690.313 326.62L691.31 327.154L692.491 327.008L694.275 325.718L696.881 325.399L700.349 325.748L702.314 325.043L704.583 325.343L706.841 325.121L708.597 326.477L711.107 327.148L714.472 327.652L715.763 330.299L718.6 331.944L721.093 332.317L722.982 332.205L723.704 333.126L724.135 335.869L725.66 337.29L726.612 338.059L727.685 338.484L728.884 340.266L730.184 340.557L734.171 340.873L737.416 342.396L742.587 343.226L744.826 343.295L745.82 342.789L747.753 343.118L749.211 344.216L750.227 344.268L751.972 342.502L755.553 341.293L757.53 341.682L759.187 340.387L760.641 340.444L764.622 341.174L766.588 339.984L767.459 338.486L767.593 337.781L768.97 336.317L770.926 335.853L772.404 334.822L773.421 333.227L774.957 332.276L776.447 332.53L776.925 333.096L779.604 332.877L781.183 333.337L783.005 334.93L783.73 336.51L784.953 337.203L786.723 336.656L787.468 337.459L789.039 337.674L791.173 336.946L791.383 336.133L794.328 336.149L797.395 337.643L798.055 338.604L799.087 338.468L800.276 338.862L800.455 339.464L802.067 339.462L804.525 340.21L805.575 341.429L806.579 341.444L811.396 338.452L813.594 337.491L816.776 337.514L818.36 336.501L819.153 335.024L819.136 333.288L818.553 332.79L817.772 333.142L817.24 332.566L816.4 332.267L816.671 329.973L817.278 329.383L817.692 327.01L817.346 325.46L817.826 324.571L818.957 324.209L819.428 322.695L818.591 321.512L818.663 319.687L819.131 318.865L818.52 317.357L818.903 316.019L820.209 314.542L821.43 313.901L822.16 312.084L823.58 310.68L824.792 310.089L825.286 308.162L825.105 307.091L825.341 305.849L824.269 304.747L823.867 303.102L822.996 300.942L821.977 300.526L820.699 300.794L818.552 301.589L817.705 301.323L817.262 300.572L817.642 298.574L818.343 297.965L818.499 297.143L819.348 296.438L820.135 294.995L821.645 293.796L821.836 292.789L822.92 292.193L825.199 292.339L826.331 292.168L827.458 292.308L827.831 292.077L829.051 292.406L830.465 292.093L831.376 290.965L832.865 291.219L834.078 290.334L835.886 290.936L836.985 290.933L838.782 291.309L839.651 290.781L840.325 290.896L841.058 289.738L843.596 289.876L844.066 289.713L845.015 290.118L846.358 290.468L847.39 291.493L850.077 292.194L851.025 293.274L851.21 294.034L853.197 294.372L854.381 294.21L854.829 294.841L856.256 295.812L856.984 295.642L857.052 294.613L857.957 294.282L858.644 294.711L859.886 294.923L860.579 294.746L861.29 295.821L862.178 295.868L863.216 296.479L863.608 297.308L863.232 298.128L863.36 298.999L864.329 299.199L864.619 299.89L865.612 299.383L866.762 299.787L866.899 300.608L866.285 301.335L866.559 302.11L867.922 302.741L868.796 302.768L869.279 303.405L869.168 304.184L869.915 304.779L870.322 305.819L870.197 306.959L870.455 308.009L870.302 308.815L870.536 309.409L872.731 309.905L872.804 310.87L872.1 311.877L872.126 312.8L873.863 314.258L874.332 315.742L875.154 317.199L875.232 318.426L876.021 318.994L876.33 320.45L877.283 321.41L877.096 322.106L876.672 322.987L877.117 323.34L878.042 323.099L878.615 324.515L878.637 325.558L879.887 327.938L882.652 330.351L882.911 331.972L882.9 333.669L883.418 334.312L883.23 335.979L884.121 336.685L885.029 337.013L885.133 338.487L884.745 339.565L885.365 341.317L886.937 343.544L888.267 344.256L888.686 345.419L889.769 345.795L890.695 345.641L891.475 346.259L892.234 346.024L893.998 346.567L895.073 346.023L896.261 346.225L896.181 346.645L895.355 347.232L895.834 347.799L897.732 348.313L898.521 348.881L898.964 349.633L899.904 350.469L900.277 349.856L901.189 349.682L902.049 350.072L902.571 349.155L903.463 349.186L904.007 349.885L904.172 350.849L904.891 351.977L905.791 352.252L905.907 353.087L906.675 353.963L907.16 354.011L907.794 354.916L907.856 355.742L909.569 356.848L909.939 357.31L910.757 357.536L911.501 358.339L912.651 358.743L913.607 358.628L914.652 358.72L915.681 358.219L916.401 358.186L917.003 358.583L916.604 359.625L915.667 360.505L915.524 361.642L915.505 362.609L916.958 362.77L917.038 364.275L917.318 365.692L916.744 367.171L916.247 367.572L916.02 368.764L917.299 370.993L917.961 371.556L919.011 373.451L919.298 374.349L920.713 374.227L922.019 373.617L923.219 373.856L923.798 375.047L924.034 376.214L925.172 376.009L926.009 375.459L927.179 375.953L928.067 375.809L930.577 375.804L931.837 375.048L932.815 374.816L932.86 373.905L933.556 372.463L934.778 372.1L935.027 370.79L935.783 369.706L936.911 369.742L938.667 370.041L939.441 368.474L940.381 368.444L941.301 368.323L941.75 367.117L942.879 366.478L944.316 366.532L945.341 365.857L946.861 366.723L947.667 367.588L949.091 367.901L949.419 368.875L950.007 370.501L948.994 371.108L949.139 371.982L950.295 373.704L950.249 374.91L950.909 375.872L951.861 376.641L951.163 378.29L950.842 379.691L950.383 380.272L949.026 380.283L947.579 381.44L947.439 382.179L947.992 383.313L948.32 383.803L947.938 385.142L947.214 386.249L947.606 387.078L948.291 387.715L948.03 388.607L948.297 389.224L948.25 389.857L947.81 390.147L947.204 390.251L946.964 392.187L947.302 393.977L947.618 394.915L947.493 395.57L946.53 396.013L945.986 397.046L946.39 397.999L946.215 398.923L946.511 399.771L945.218 400.122L944.88 400.55L945.22 401.457L945.261 402.782L944.582 403.273L943.527 404.774L943.565 405.734L943.721 406.645L943.284 407.212L943.245 408.089L943.602 409.103L943.585 410.348L942.74 411.036L941.782 410.873L940.996 410.479L935.676 408.602L934.671 408.014L933.351 407.443L932.648 407.479L930.612 409.524L930.046 410.571L929.015 411.47L928.005 411.385L926.817 411.858L926.304 412.534L926.666 413.999L928.12 417.333L928.298 418.611L928.674 419.715L929.526 421.299L929.174 422.764L928.993 424.779L928.912 426.169L928.379 428.973L929.256 429.851L929.105 431.316L928.878 432.802L928.287 433.499L928.027 434.581L928.115 435.463L927.812 436.867L927.198 436.919L925.182 436.35L924.08 436.751L923.873 437.357L923.906 438.819L924.486 439.334L924.311 440.257L924.05 440.664L925.149 442.879L925.657 443L926.699 440.699L928.986 440.707L929.555 441.567L930.8 438.971L932.04 438.42L932.8 435.481L934.584 434.572L934.812 433.086L935.507 432.32L937.123 433.74L939.382 433.223L940.204 434.195L939.847 437.133L942.395 438.278L944.767 440.346L945.918 439.589L946.763 440.825L949.078 439.244L951.561 439.286L952.094 438.215L953.348 438.36L955.06 436.485L958.569 433.633L958.22 432.672L960.405 432.161L960.769 430.247L960.442 428.406L961.684 428.999L961.725 429.456L964.264 427.081L963.707 425.391L964.677 425.297L964.964 422.728L966.678 422.188L967.047 420.535L969.69 419.443L970.163 418.692L969.554 417.946L970.237 416.087L971.335 415.702L974.295 408.996L976.463 407.129L976.871 405.656L978.908 404.478L979.662 402.63L982.212 400.586L982.673 398.931L981.869 398.534L981.696 396.269L983.852 394.851L983.64 391.053L985.476 389.581L985.588 388.317L984.883 388.076L986.629 385.635L986.957 383.524L988.888 382.328L989.543 379.943L989.129 379.613L989.309 376.835L990.922 374.423L991.564 372.106L994.516 370.061L994.786 367.871L994.228 366.181L994.573 363.692L995.277 363.171L995.694 361.266L994.359 361.159L994.524 357.114L994.92 356.09L994.545 354.882L995.328 351.826L993.398 348.879L992.617 348.746L992.037 347.174L992.905 346.559L994.616 344.684L994.562 343.912L992.8 344.704L991.482 344.219L990.75 338.531L991.08 337.183L991.037 335.962L991.275 332.882L992.071 331.874L991.446 327.746L992.716 326.749L991.898 326.038L992.442 325.299L992.795 324.215L992.173 323.537L993.411 322.032L992.955 320.481L993.374 319.339L994.573 318.711L993.373 317.224L993.483 315.197L994.443 314.39L994.395 312.908L993.102 313.641L991.735 313.027L990.251 311.301L990.663 309.516L991.849 308.575L992.009 307.059L990.248 303.899L988.976 303.751L987.632 301.668L988.93 301.196L989.313 299.857L990.494 298.654L989.552 295.807L988.528 295.702L987.657 294.218L986.297 293.761L986.005 292.602L982.508 290.671L981.832 289.412L979.512 288.705L978.593 287.855L977.995 285.707L976.939 284.418L974.982 283.928L973.318 282.085L971.057 283.19L969.354 283.091L968.45 283.994L967.457 283.825L966.959 282.977L967.223 282.259L965.76 281.091L964.066 280.855L964.373 283.767L965.558 285.529L964.562 286.815L964.982 289.712L963.901 291.833L962.671 292.334L962.918 290.262L963.641 288.288L963.02 285.876L962.14 286.94L962.17 288.609L960.974 290.953L958.728 291.784L954.774 291.682L954.382 290.852L955.984 289.843L956.96 290.009L957.212 287.625L958.246 286.519L959.086 285.951L957.224 285.443L956.085 286.133L955.605 285.098L954.351 285.335L953.264 286.814L952.087 287.324L951.651 287.111L950.222 288.271L948.346 286.097L949.064 284.053L948.837 281.396L947.355 278.596L948.153 274.398L946.163 274.562L945.417 274.244L943.805 274.923L942.409 275.135L939.982 276.247L938.302 275.839L937.101 274.352L935.322 274.656L933.92 273.359L933.268 271.688L934.432 270.378L935.24 268.731L937.38 266.53L937.616 265.288L940.427 263.6L941.086 260.904L944.083 259.3L944.553 257.214L945.465 257.04L945.504 256.162L947.595 254.023L948.266 252.23L949.849 250.646L949.473 248.675L950.246 247.784L950.666 244.805L952.395 241.009L953.052 241.12L954.07 238.174L955.563 237.735L955.514 235.872L958.373 233.551L959.038 231.498L960.964 230.613L960.518 227.66L961.488 227.183L961.905 225.278L963.141 224.848L963.926 225.051L964.197 223.242L963.649 221.884L964.404 218.684L964.258 216.562L965.995 214.171L969.048 211.884L970.234 208.827L968.639 205.175L969.327 203.386L971.23 202.237L972.02 200.586L975.581 198.905L976.349 197.372L977.489 197.444L978.436 198.819L980.32 198.828L983.752 197.056L986.328 197.374L989.146 196.329L990.897 196.748L992.877 195.872L994.372 196.197L995.914 196.269L996.931 195.159L998.263 196.34L997.198 197.996L998.356 198.644L999.646 200.337L1000.8 198.87L1002.38 197.995L1000.24 195.775L1000.39 194.969L1002.53 194.311L1005.78 195.316L1007.37 194.755L1010.87 195.541L1011.23 196.816L1012.08 196.961L1013.24 196.137L1014.52 196.546L1014.32 195.107L1015.51 194.547L1018.29 195.142L1019.2 196.701L1022.77 196.027L1023 194.802L1022.06 194.069L1021.23 194.499L1019.34 193.085L1021 191.391L1021.16 192.633L1023.82 192.133L1021.79 190.383L1022.06 189.337L1023.19 189.461L1025.98 187.248L1028.44 187.789L1029.57 188.936L1031.07 188.481L1034 189.742L1036.38 189.957L1036.03 190.729L1037 191.659L1038.18 191.547L1037.69 190.251L1040.27 190.568L1042.67 191.428L1044.2 191.879L1045.6 193.332L1045.59 194.092L1047.68 194.831L1049.45 193.728L1050.77 194.212L1050.97 195.269L1047.57 196.857L1044.89 196.401L1044.07 197.162L1043.95 198.857L1042.51 198.612L1041.92 199.343L1042.56 199.903L1043.93 200.136L1045.65 203.498L1046.51 202.813L1049.28 202.521L1050.65 201.352L1050.38 200.664L1052.29 200.158L1051.31 198.204L1052.35 198.383L1054.1 200.847L1055.31 201.244L1056.29 200.319L1055.65 199.447L1056.93 198.852L1057.97 197.919L1058.5 198.01L1058.86 196.598L1058.78 195.475L1060.04 195.255L1060.91 196.132L1062.25 195.666L1063 196.593L1063 197.891L1064.05 198.678L1066.74 196.97L1065.85 195.898L1066.14 195.411L1067.62 194.832L1068.74 195.508L1069.95 195.021L1071.07 195.402L1071.54 194.65L1070.33 192.849L1070.76 192.315L1070.8 191.438L1069.17 190.45L1068.31 189.663L1068.05 189.965L1068.05 190.658L1067.08 190.492L1065.7 189.459L1065.19 189.633V190.499L1063.56 190.188L1062.78 190.66L1061.54 189.722L1062.26 188.388L1063.16 188.09L1061.4 184.706L1062.96 183.914L1061.76 181.544L1063.12 178.845L1063.53 177.044L1065.07 175.781L1065.71 173.307L1067.68 171.926L1067.98 170.106L1067.54 169.736L1069.41 169.431L1067.71 166.748L1069.69 161.157L1071.3 160.254L1069.99 157.655L1070.05 155.465L1069.04 154.46L1069.33 153.678L1071.07 152.83L1071.26 150.574L1072.45 150.171L1074.88 147.604L1076.89 148.223L1078.03 147.69L1079.16 148.299L1080.32 147.23L1083.5 147.617L1083.88 146.884L1085.26 146.756L1085.92 145.238L1086.66 145.365L1087.35 144.911L1089.37 145.255L1089.43 146.86L1090.31 146.473L1090.94 146.736L1091.57 148.906L1092.21 149.015L1093.97 147.564L1094.2 145.505L1095.39 145.397L1096.12 143.476L1096.89 143.485L1097.13 144.93L1098.72 146.45L1098.47 148.436L1097.81 149.05L1098.41 150.02L1098.7 151.594L1097.32 152.573L1098.01 153.176L1098.18 154.99L1097.66 155.023L1097.42 156.282L1097.79 157.038L1096.85 157.952L1096.23 158.522L1096.64 159.425L1098.4 158.355L1098.77 159.597L1100.43 160.296L1100.16 163.249L1101.16 162.742L1101.47 161.495L1103.24 160.429L1104.39 160.746L1104.97 161.763L1103.09 163.922L1104.37 165.475L1104.6 167.385L1106.09 165.125L1107.47 164.598L1107.69 163.614L1108.54 162.735L1109.41 158.62L1110.76 157.672L1109.76 156.425L1111.44 155.377L1111.79 154.103L1111.25 153.594L1111.4 153.049L1112.11 152.718L1113.02 150.326L1112.18 149.16L1113.59 146.852L1115.1 146.122L1117.54 146L1117.92 147.399L1119.04 148.647L1119.86 147.765L1118.99 146.402L1119.63 144.761L1117.31 143.153L1117.07 139.627L1116.05 138.813L1116.1 137.902L1114.71 136.451L1114.61 133.99L1115.41 133.434L1115.34 131.671L1113.7 129.901L1114.19 128.58L1113.57 127.624L1116.22 125.98L1118.04 126.168L1119.93 124.704L1122.12 125.183L1122.93 124.713L1125.06 127.087L1127.45 127.392L1128.33 127.991L1130.05 128.475L1131.13 128.399L1128.71 129.236L1129.64 130.226L1127.78 130.514L1125.87 129.739L1123.11 131.627L1122.69 132.819L1123.24 135.011L1123.06 136.731L1123.97 137.839L1124 139.11L1125.52 141.535L1125.46 142.409L1125.65 142.633L1125.1 143.232L1126.76 144.243L1126.85 146.269L1126.64 147.186L1125.75 147.902L1125.4 151.847L1125.98 152.171L1126.82 151.169L1127.41 151.392L1128.07 153.22L1128.52 154.353L1127.04 156.649L1126.37 159.777L1127.52 160.96L1128.76 160.479L1130.35 160.976L1130.66 161.686L1130.1 162.667L1129.1 162.461L1127.27 163.344L1126.72 163.217L1124.21 164.799L1123.71 166.344L1121.52 167.15L1121 167.892L1119.58 168.119L1119.09 169.664L1117.93 170.766L1118.21 172.912L1119.53 172.721L1118.96 174.947L1116.99 177.245L1117.13 178.343L1117.93 179.018L1116.68 182.41L1116.73 185.123L1115.7 186.126L1113.58 186.492L1113 188.092L1113.62 188.857L1112.6 191.924L1111.91 192.57L1112.02 193.923L1113.33 195.706L1112.01 195.446L1110.95 198.092L1111.36 199.115L1110.98 201.146L1109.26 202.379L1109.98 204.287L1109.3 207.481L1109.84 210.694L1106.23 215.123L1107.3 217.282L1105.76 216.568L1102.74 216.435L1102.14 219.592L1102.36 220.963L1100.08 222.621L1096.99 220.499L1095 221.686L1094.9 222.882L1097.12 223.26L1099.58 228.081L1098.62 232.06L1097.7 232.927L1098.47 234.202L1097.01 234.456L1096.03 237.167L1093.69 239.02L1092.67 242.332L1093.57 245.431L1093.26 251.255L1094.94 255.25L1094.4 258.105L1096.64 266.928L1099.57 276.372L1102.99 284.304L1104.76 287.032L1104.43 289.524L1109.23 297.328L1113.71 309.878L1116.5 311.879L1118.77 312.336L1120.25 311.947L1119.36 313.199L1117.78 313.693L1116.56 313.363L1118.16 317.085L1120.15 324.635L1119.99 327.606L1121.33 330.453L1124.65 331.4L1124.97 332.599L1124.58 334.249L1124.79 335.567L1124.14 337.242L1126.69 333.775L1128.29 330.356L1128.87 330.125L1129.38 328.496L1131.8 327.123L1132.47 325.712L1132.22 324.907L1133.21 323.671L1134.46 320.245L1133.77 318.601L1134.42 316.217L1136.08 315.216L1134.81 313.406L1133.74 313.726L1132.67 313.284L1133.49 312.141L1132.77 309.591L1133.69 310.06L1134.5 309.366L1133.1 307.464L1133.69 306.472L1134.48 304.751L1132.63 304.558L1131.74 303.523L1132.97 302.068L1134.43 303.651L1137.39 301.851L1138.66 302.326L1140.34 301.278L1142.16 300.566L1142.64 301.22L1144.56 301.737L1143.62 299.914L1141.36 298.315L1141.87 296.305L1139.77 294.663L1139.03 289.684L1140.86 285.715L1139.71 284.046L1141 283.243L1141.73 281.132L1143.91 278.244L1143.34 277.314L1144.59 277.84L1147.71 276.656L1147.94 277.595L1153.38 276.616L1153.58 274.484L1155 273.391L1153.25 272.001L1151.04 267.604L1149.73 267.38L1146.47 260.375L1146.87 259.039L1145.85 257.653L1146.75 251.877L1147.28 251.205L1147.04 248.495L1148.63 246.86L1148.95 245.181L1146.85 245.273L1146.59 244.207L1148.66 242.202L1150.42 242.173L1150.66 240.93L1150.19 240.21L1151.5 239.409L1151.66 241.033L1151.08 243.031L1149.98 244.577L1149.73 246.961L1152.18 248.332L1154.11 250.254L1155.36 250.017L1155.93 247.808L1156.91 246.884L1156.02 244.045L1152.78 240.182L1153.57 236.417L1151.91 235.232L1151.55 234.72L1150.89 235.301L1149.33 236.059L1149.22 236.924L1148.2 237.391L1146.61 235.854L1147.28 232.971L1146.38 230.963L1145.36 227.669L1146.87 226.47L1147.59 226.072L1147.38 224.65L1148.72 223.318L1147.85 221.888L1148.46 221.003L1148.63 219.541L1147.53 218.748L1146.05 218.772L1143.52 216.174L1141.75 215.751L1140.32 216.497L1140.23 217.659L1141.94 220.325L1141.4 221.724L1140.59 222.157L1138.63 220.871L1136.88 217.573L1135.61 215.796L1134.44 214.713L1135.26 214.022L1134.42 210.862L1134.71 209.127L1134.97 208.182L1134.41 206.371L1135.25 205.335L1134.85 202.719L1136.15 201.571L1136.26 200.1L1137.11 198.338L1137.43 196.642L1136.41 197.005L1135.04 194.952L1135.4 194.337L1136.68 194.139L1138.06 195.396L1138.31 194.746L1137.22 193.504L1136.08 192.096L1136.84 191.081L1137.5 191.193L1137.36 190.078L1136.3 188.561L1134.6 187.736L1134.39 186.555L1135.3 186.398L1135.24 184.378L1134 182.449L1134.49 181.095L1135.31 179.779L1136.3 179.306L1135.46 177.534L1135.89 176.532L1137.14 176.71L1138.7 177.93L1139.74 177.777L1140.9 175.548L1142.24 175.587L1142.87 176.907L1143.78 177.131L1144.75 179.152L1147.27 175.82L1145.5 174.825L1146.14 173.27L1147.66 172.697L1150.41 169.595L1150.96 167.765L1151.97 169.6L1153.38 170.672L1153.16 172.49L1154.25 178.102L1155.13 179.585L1156.1 179.059L1157.51 174.827L1158.37 173.499L1158.33 171.586L1159.58 170.395L1158.69 167.938L1160.23 169.085L1161.6 168.243L1163.03 165.366L1164.74 165.59L1167 163.668L1168.92 163.476L1169.71 164.321L1172.91 163.082L1175.24 163.929L1179.32 167.241L1179.39 168.709L1180.67 169.118L1182.22 169.053L1182.98 169.634L1182.1 170.055L1184.08 173.131L1185.15 172.483L1186.37 174.147L1188.45 174.189L1189.74 174.859L1189.94 173.49L1188.01 169.901L1188.85 169.022L1188.51 167.941L1187.48 167.384L1187.96 165.923L1189.2 164.662L1190.59 160.946L1192.3 158.308L1192.08 156.937L1194.38 154.78L1193.93 153.56L1195.13 152.932L1194.4 150.068L1193.34 149.247L1193.51 148.391L1195.95 148.617L1197.15 146.966L1194.8 145.423L1194.14 143.976L1195.33 143.797L1196.09 144.81L1197.31 144.758L1197.95 143.532L1197.32 142.211L1199.32 141.218L1199.42 139.901L1198.6 138.547L1200.01 138.147L1200.97 138.812L1201.89 137.497L1202.52 136.702L1201.75 135.739L1203.26 135.614L1205.57 134.033L1205.02 132.725L1205.67 131.12L1206.46 132.277L1208.52 130.964L1207.85 128.423L1208.3 126.073L1209.72 126.385L1209.9 126.867L1211.05 126.109L1214.26 123.397L1213.21 122.838L1213.55 121.352L1215.14 121.554L1218.57 119.521L1217.47 118.57L1218.25 118.011L1220.39 118.427L1223.43 117.281L1222.88 115.905L1223.47 115.312L1224.34 116.033L1224.39 117.497L1225.88 118.27L1227.26 117.743L1228.95 119.175L1235.28 120.254L1236.22 121.368L1237.13 121.211L1236.62 118.958L1235.11 117.677L1235.26 116.871L1236.5 116.701L1237.24 111.782L1235.58 108.051L1233.77 107.291L1232.12 103.941L1233.58 102.908L1231.65 100.604L1227.9 99.0791L1224.51 96.0054L1223.53 93.3595L1222.77 94.8256L1221.62 94.1103L1220.87 94.5021L1220.18 96.2916L1218.32 96.5463L1217.88 95.3965L1218.42 93.6333L1220.4 92.7573L1219.4 90.8714L1219.9 90.3839L1221.02 90.5743L1222.12 91.9062L1219.64 86.179L1217.49 83.9592L1216.9 86.336L1216.84 87.0365L1215.64 86.9544L1213.06 83.5148L1213.54 82.0033L1215.2 82.5454L1214.68 81.0524L1210.83 76.8259L1210.08 76.5082L1210.32 77.762L1209.34 78.9981L1206.86 78.9059L1205.13 76.6351L1203.09 75.7153L1201.55 72.193L1201.74 71.1521L1200.79 70.0886L1199.29 70.213L1196.17 72.0399L1196 72.9634L1194.56 72.337L1193.26 72.8259L1192.42 76.1841L1193.22 77.2739L1191.74 76.1898L1191.23 73.174L1192.34 70.9353L1189.96 69.195L1189.52 66.8841L1188.76 66.6335L1190.36 66.7149L1191.65 68.7895L1192.04 67.1227L1194 67.388L1195.33 68.5684L1197.9 67.4809L1197.33 65.8583L1193.1 63.2483L1191.67 64.7368L1189.27 64.2585L1187.52 63.1123L1189.41 63.4862L1191.35 61.771L1192.93 61.6418L1194.18 62.7567L1196.37 63.4063L1198.14 65.0941L1200.15 67.9854L1201.94 68.4815L1202.57 70.1833L1203.81 70.7063L1205.87 69.7752L1206.63 71.0496L1211.15 68.8893L1211.49 69.5891L1210.74 71.0552L1212.44 70.2544L1212.82 68.2732L1215.49 65.6078L1215.19 64.3953L1215.67 62.1713L1215.41 58.8697L1217.86 53.7389L1218.52 50.2634L1217.25 48.1582L1216.98 46.0148L1214.84 43.7951L1214.21 41.1396L1215.01 41.3458L1216.2 43.5762L1216.56 43.6031L1216.37 41.2139L1214.39 39.8011L1212.26 40.2349L1208.93 38.7494L1205.17 32.5437L1204.14 31.7961L1204.6 30.8005L1207.17 31.0817L1208.17 29.4337L1207.28 27.9474L1205.23 27.5631L1204.57 26.7921L1205.85 26.1767L1205.27 23.8949L1205.66 23.7707L1207.16 26.3134L1209.6 28.2198L1210.27 27.1568L1209.41 25.8307L1209.83 24.4979L1209.48 23.1389L1210.5 22.4812L1211.27 23.6686L1211.64 24.8764L1213.13 25.7026L1213 29.754L1212.49 31.0014L1216.15 34.7797L1217.88 34.1559L1219.61 35.1617L1219.14 38.0982L1220.73 38.4039L1224.69 34.7278L1225.68 32.9196L1225.28 30.9793L1226.25 27.7658L1226.06 26.1029L1226.67 27.8719L1226.47 30.0039L1227.52 29.9915L1229.26 28.8321L1232.32 28.5922L1233.04 26.9629L1235.79 28.3852L1235.25 28.9003L1235.65 29.6092L1239.27 33.2074L1239.81 33.7162L1240.14 35.9053L1239.83 36.8045L1240.67 37.4517L1244.45 37.2289L1245.03 37.7773L1244.87 38.5832L1245.39 38.6709L1247.05 37.359L1246.48 35.8936L1246.89 35.4611L1247.93 35.673L1247.95 33.4742L1249.2 33.9132L1249.67 35.1362L1249 36.2359L1250.68 36.5231L1252.31 35.9681L1256.26 36.9536L1257.23 37.8126L1258.63 37.8942L1258.96 38.6612L1259.79 38.9239L1261.32 37.9723L1260.98 34.793L1261.49 35.2621L1262.88 38.2383L1265.52 37.5948L1265.8 36.4987L1265.05 34.083L1263.56 34.09L1261.82 32.6493L1263.19 31.4096L1264.58 32.599L1266 32.2687L1266.39 30.2204L1264.68 29.6692L1263.55 28.8364L1262.34 29.5143L1261.94 30.8501L1261.53 29.566L1259.48 29.667L1260.21 27.6257L1259.38 26.3392L1257.8 26.4516L1257.43 27.7232L1256.9 26.5415L1257.27 25.3904L1259.32 24.908L1259.33 22.3613L1258.37 21.6961L1260.66 20.6807L1259.74 18.3583L1260.23 17.2284L1258.29 14.9915L1256.11 14.844L1253.67 16.5081L1254.54 14.0225L1256.14 13.3944L1254.91 11.0175L1255.02 9.56319L1254.22 9.35696L1252.64 10.423L1252 9.01263L1250.81 8.20433L1248.29 8.15649L1250.42 6.92325L1252.71 7.38341L1255.1 6.14511L1255.52 7.13474L1257.67 4.67615L1259.71 4.57214L1260.4 3.25117L1259.63 1.62891L1255.92 0.130371L1258.9 0.153015L1261.61 0.71933L1262.75 -0.144592L1262.38 -1.99184L1260.64 -3.12122L1259.9 -5.03197L1258.2 -4.94073L1258.19 -5.931L1259.21 -7.95747L1258.58 -12.5905L1259.12 -13.5206L1260.29 -14.586L1260.63 -15.7767L1259.07 -16.615L1257.06 -15.1027L1255.43 -14.3234L1255.76 -16.3976L1254.25 -16.8117L1253.9 -15.624L1252.77 -15.3994L1252.48 -16.2473L1253.2 -17.9101L1248.06 -19.7039L1246.78 -19.299L1244.36 -20.1786L1243.13 -21.7925L1243.05 -22.6041L1241.59 -23.2335L1240.65 -23.0992L1240.16 -24.1711L1238.7 -24.6098L1236.75 -22.5162L1234.99 -22.434L1234.09 -22.1366L1233.04 -21.5886L1235.18 -21.2228L1234.34 -20.1533L1232.13 -19.2999L1231.23 -19.3304L1231.54 -17.77L1232.87 -16.2783L1232.28 -15.7021L1230.61 -16.4547L1229.84 -19.7066L1230.25 -20.5907L1229.06 -20.4988L1226.27 -17.8881L1224.54 -15.7049L1222.52 -14.6106L1222.66 -13.703L1225.21 -15.0178L1226.31 -14.8304L1226.78 -13.0352L1228.15 -11.3635L1230.86 -8.76936L1231.01 -6.76764L1229.6 -5.70793L1229.7 -4.32109L1232.05 -4.33708L1234.44 -5.07335L1235.43 -3.46516L1235.25 -2.00613L1235.88 0.806564L1235.84 1.52684L1234.57 -0.283859L1233.99 -2.51526L1233.01 -3.13319L1231.77 -1.90591L1231.98 -0.310181L1232.66 0.343307L1232.26 0.812378L1230.84 0.189056L1229.88 -2.36676L1227.69 -3.06969L1225.68 -1.88544L1224.45 -2.63266L1224.24 -4.48929L1225.18 -5.19576L1224.45 -7.06989L1223.14 -8.62872L1222.96 -10.4961L1220.14 -11.9305L1218.3 -17.0803L1216.9 -19.2601L1217.32 -19.9169L1216.4 -21.0613L1215.05 -21.5856L1215.42 -20.8827L1214.64 -19.6104L1213.99 -20.2243L1213.55 -22.137L1210.48 -24.514L1208.5 -25.0769L1206.68 -25.0068L1206.81 -23.858L1208.16 -22.7952L1211.21 -21.1308L1208.71 -20.6568L1205.91 -22.346L1204.63 -24.0895L1205.25 -25.1983L1204.5 -25.8975L1201.78 -26.4836L1202.57 -25.7753L1202.41 -24.9191L1199.88 -24.709L1198.82 -26.5536L1199.49 -27.2718L1196.78 -28.2532L1196.08 -28.1132L1196.1 -26.5141L1194.75 -27.1955L1194.31 -28.7436L1191.82 -29.0997L1192.35 -27.6738L1185.23 -30.2914L1183.07 -29.8973L1180.44 -31.2984L1180.59 -32.3485L1178.17 -33.402L1177.82 -33.0276L1177.58 -32.1666L1176.77 -32.8779L1175.23 -33.6429L1173.89 -35.0842L1172.75 -34.7757L1172.95 -33.3371L1170.5 -33.8947L1168.24 -34.0879L1167.41 -32.8949L1164.83 -33.4568L1160 -36.0659L1160.31 -36.6539L1163.1 -35.0852L1164.53 -34.0804L1164.93 -34.7738L1160.5 -38.8392L1154.68 -40.4732L1152.03 -40.2843L1151.28 -40.9835L1152.42 -41.6902L1151.23 -42.8464L1149.32 -42.7213L1149.81 -42.1346L1148.5 -41.9769L1146.72 -43.1825L1141.67 -45.7073L1138.81 -45.8827L1137.62 -44.9409L1136.46 -45.5891L1135.81 -46.7919L1134.05 -46.3817L1130.85 -46.996L1129.58 -48.4954L1128.37 -48.5103L1125.9 -48.6192L1125.33 -49.1676L1123.95 -47.9981L1123.32 -46.7718L1122.76 -48.4616L1115.51 -47.9113L1115.07 -46.3236L1113.54 -47.1558L1112.28 -45.4464L1111.61 -45.5079L1111.17 -46.7278L1108.71 -46.8871L1108.49 -45.3304L1107.34 -45.6474L1105.78 -45.2711L1103.77 -47.0882L1101.61 -46.7445L1101.19 -45.6025L1097.29 -46.3377L1092.5 -46.7024L1091.5 -47.5674L1087.52 -47.6388L1087.04 -47.252L1089.1 -45.1847L1089.72 -42.3415L1090.62 -41.4244L1090.83 -39.6547L1091.68 -36.9629L1090.78 -36.0933L1090.45 -33.9825L1091.41 -33.7491L1093.24 -34.7896L1096.05 -32.9066L1096.6 -31.5312L1097.78 -31.0005L1100.36 -27.5608L1100.46 -24.8754L1102.79 -23.6463L1104.1 -21.3077L1103.7 -20.2328L1104.04 -19.1516L1103.13 -18.5962L1104.01 -16.8521L1103.15 -16.3044L1102.05 -16.8733L1099.8 -15.9923L1099.8 -14.6572L1097.6 -14.7711L1096.06 -14.0805L1093.26 -14.9396L1092.35 -16.1176L1092.69 -17.9141L1090.52 -22.1144L1089.31 -22.5107L1088.63 -22.1068L1084.68 -23.6812L1081.99 -23.7593L1080.9 -24.7768L1078.91 -27.8024L1079.36 -29.7715L1078.02 -31.2129L1075.85 -31.8258L1075.65 -32.8829L1075.12 -34.8977L1072.5 -35.9845L1071.43 -35.3694L1070.89 -33.5894L1070.48 -31.4067L1070.57 -30.177L1068.05 -27.8689L1066.97 -26.2665L1066.08 -27.5285L1066.04 -28.5584L1065.21 -28.6303L1063.42 -27.8782L1059.85 -28.7635L1056.54 -28.2181L1055.36 -28.8357L1052.73 -27.5329L1050.12 -27.4753L1048.74 -28.143L1047.32 -29.9809L1046.16 -30.2475L1045.45 -29.6925L1045.41 -28.4168L1042.23 -27.78L1040.4 -26.8432L1036.88 -27.097L1034.35 -25.1703L1033.8 -22.0581L1032.95 -18.2513L1035.33 -13.4425L1035.32 -10.8958L1033.55 -14.3872L1032.11 -16.3655L1030.64 -16.4257L1029 -17.7277L1029.04 -16.179L1030.6 -15.15L1030.95 -12.4025L1030.85 -11.4669L1028.89 -14.9214L1027.31 -15.1905L1027.34 -18.2529L1024.96 -21.3451L1024.08 -23.7317L1022.54 -23.8039L1022.78 -21.1447L1022.1 -19.6666L1021.7 -21.7808L1020 -23.162L1017.58 -23.2619L1017.22 -22.1108L1016.32 -23.356L1013.96 -23.7581L1011.5 -21.8193L1009.47 -21.7153L1011.04 -23.2331L1011.14 -24.8109L1009.99 -28.3339L1010.57 -30.6632L1009.95 -31.6525L1010.05 -33.2305L1008.97 -36.4132L1006.53 -40.2774L1003.22 -42.6966L1000.3 -46.9033L992.382 -50.9921L987.97 -51.8654L985.878 -51.8407L981.79 -50.18L981.464 -49.5249L979.636 -50.2178L976.242 -49.7042L969.181 -47.7184L966.663 -47.5754L963.357 -45.4003L961.536 -45.0693L957.56 -42.9389L955.442 -42.3984L953.008 -40.9587L950.004 -40.76L947.727 -41.9801L943.932 -41.8641L941.226 -41.1121L943.475 -42.6355L946.584 -43.7696L947.245 -45.1303L945.35 -48.2613L941.157 -49.9987L937.608 -53.2903L936.413 -54.1353L935.558 -53.5876L933.233 -50.6039L932.953 -48.7449L932.462 -50.1113L931.487 -49.8961L930.179 -48.0217L928.819 -47.6122L928.458 -48.5057L929.548 -50.6773L930.539 -51.6524L930.148 -53.8337L928.244 -55.1811L925.809 -53.7413L925.917 -52.5788L924.464 -50.9025L923.618 -52.1386L923.741 -54.2324L923.095 -56.128L922.771 -58.6619L920.699 -57.299L917.719 -57.6162L915.611 -56.8315L914.461 -57.5301L916.193 -58.4484L916.096 -60.0595L916.544 -61.6471L916.288 -63.4762L916.721 -63.9225L919.408 -61.107L921.033 -61.8527L921.651 -63.6542L919.46 -67.737L914.09 -70.6977L909.566 -72.0408L904.31 -71.6539L899.558 -71.5105L896.126 -69.738L895.196 -61.2816L894.576 -59.0819L894.939 -57.4254L892.776 -55.2979L892.365 -53.132L889.831 -51.8478L888.395 -52.0926L887.768 -53.0315L888.102 -54.1185L886.326 -55.7559L887.756 -56.5349L888.834 -55.8485L890.571 -58.2393L890.554 -61.6221L888.929 -62.6097L888.364 -65.7048L889.47 -65.0657L891.506 -66.2439L891.249 -64.5025L892.658 -62.6676L893.2 -59.8365L893.908 -60.6692L894.44 -64.912L894.153 -68.0289L887.923 -66.8546L882.866 -64.7179L882.413 -63.0097L879.53 -61.7157L878.016 -62.9965L878.642 -64.1725L880.184 -64.4816L878.782 -66.6446L880.54 -69.9158L882.239 -68.9328L883.201 -69.0809L884.923 -67.834L891.13 -69.2722L893.475 -69.5659L889.302 -70.3465L886.748 -70.4004L883.484 -71.3381L876.079 -72.4614L874.272 -71.8161L864.137 -72.8328L858.297 -73.7069L854.586 -73.646L851.043 -75.9138L847.56 -75.9875L844.901 -75.4873L846.387 -72.998L849.314 -72.4992L850.828 -71.5998L852.507 -71.5735L853.887 -69.2931L853.468 -68.151L849.966 -66.0092L848.187 -66.5724L845.059 -66.0135L844.288 -63.7876L843.019 -62.4092L844.246 -58.9413L847.161 -57.6124L847.84 -59.3515L849.995 -60.7694L853.364 -61.1487L852.214 -58.2767L849.256 -58.7114L850.245 -56.4974L849.772 -56.1274L850.284 -54.584L847.915 -53.7746L849.588 -53.0387L851.555 -53.4661L852.232 -52.0161L851.487 -50.2189L853.194 -47.8307L855.252 -47.2892L857.365 -43.861L856.623 -42.4621L855.494 -43.5558L853.537 -43.1788L853.758 -41.165L852.606 -40.7894L851.784 -41.7615L850.596 -41.5826L850.21 -43.5031L847.896 -45.8736L846.5 -45.6608L847.177 -44.2108L845.494 -43.5443L844.613 -44.5957L843.413 -43.9682L843.843 -41.9883L843.596 -39.3436L845.469 -38.5043L847.897 -39.2345L849.121 -37.4833L847.544 -36.608L849.267 -35.3611L847.482 -34.4518L845.241 -35.4751L845.212 -34.6481L847.379 -32.9441L843.53 -33.6001L842.914 -35.3691L840.053 -35.926L839.282 -37.8428L837.365 -38.7415L835.707 -41.0002L833.029 -41.4567L831.39 -42.7587L829.906 -42.7517L829.084 -43.3424L822.832 -42.0506L822.29 -40.5483L821.41 -39.8663L822.499 -38.4673L821.907 -37.4761L822.869 -35.4055L822.449 -35.0264L821.005 -36.6766L819.574 -36.2791L818.172 -37.0901L811.238 -37.5093L808.102 -38.3556L806.652 -40.6482L804.652 -41.4919L803.118 -43.7294L802.47 -46.0064L801.027 -46.8937L800.986 -45.618L801.794 -42.7415L801.485 -38.3221L802.969 -33.0252L804.055 -28.8186L804.164 -19.8558L803.349 -18.0708L802.289 -18.182L801.524 -19.8378L801.379 -21.1971L800.152 -22.9316L799.13 -22.4646L799.557 -21.2476L798.771 -20.2896L796.322 -21.279L794.356 -24.4222L790.311 -25.4929L788.967 -27.9581L787.635 -28.757L782.942 -34.6012L781.824 -34.7916L780.554 -34.1762L779.081 -34.6178L778.489 -35.7415L782.469 -38.1831L783.954 -37.8087L782.924 -38.7469L781.078 -40.015L779.478 -42.1944L778.946 -42.2851L779.277 -41.1367L780.624 -39.3643L780.184 -37.7232L777.916 -36.7751L774.859 -38.1282L772.1 -40.9557L771.677 -42.2932L768.413 -43.231L768.085 -45.0722L766.753 -46.2525L770.531 -45.6086L773.713 -44.2344L775.063 -42.8602L777.101 -43.2755L779.091 -45.5537L779.132 -46.8294L777.661 -46.5082L777.507 -47.8171L775.827 -47.8434L776.896 -50.1919L775.354 -52.4828L773.978 -51.9892L773.888 -53.4433L772.977 -54.136L771.672 -53.6304L770.758 -52.8675L768.061 -53.7085L768.252 -55.9641L772.024 -58.1811L772.006 -59.4323L770.603 -59.7581L767.84 -57.9409L768.009 -59.8882L769.58 -61.0245L769.333 -62.9039L768.606 -62.8371L767.778 -62.3368L767.575 -63.9661L765.985 -64.2718L765.534 -65.0768L764.445 -66.285L765.791 -68.2571L765.145 -69.0952L763.962 -68.4647L762.451 -66.677L762.498 -69.9104L761.112 -71.4813L759.298 -70.6117L758.294 -70.8176L758.071 -73.2128L756.323 -72.1068L755.488 -72.1452L754.867 -71.1936L754.765 -73.4471L754.911 -74.6009L752.552 -75.003L751.442 -74.6548L750.749 -75.5356L748.078 -75.2628L746.53 -75.596L745.999 -74.9237L746.799 -74.0248L747.062 -72.2292L745.981 -72.7082L745.124 -72.4382L744.894 -71.2294L744.427 -71.5689L742.435 -71.4924L741.939 -72.0623L742.946 -73.3121L744.173 -73.987L743.497 -75.7315L742.029 -76.2937L741.813 -74.7705L740.62 -74.1766L739.79 -75.6874L738.425 -76.4053L737.164 -78.2496L736.426 -77.3528L735.059 -77.291L732.805 -77.5712L732.331 -78.6401L731.717 -77.3406L730.555 -76.8108L728.82 -78.6665L727.425 -78.7482L727.547 -77.2713L727.813 -76.55L725.616 -75.399L724.896 -76.0418L724.794 -77.0472L723.578 -75.6597L723.452 -73.5492L724.383 -72.0905L724.499 -70.3893L725.351 -69.8628L725.23 -67.6821L727.075 -66.9862L727.69 -65.5987L727.192 -64.0369L728.383 -62.4992L728.697 -61.1631L727.294 -59.7555L726.49 -60.1525L726.18 -61.5054L723.714 -61.2497L722.247 -61.9156L720.545 -61.8244L721.02 -60.5648L719.709 -59.1589L717.895 -59.3467L716.63 -60.013L712.481 -58.7093L706.983 -58.7798L705.011 -59.7745L702.254 -60.2965L701.611 -60.0941L700.186 -60.7876L692.599 -62.3928L690.639 -64.5121L690.251 -67.7677L691.733 -69.4912L692.45 -69.6984L692.819 -70.97L690.555 -72.2573L687.935 -72.6345L682.228 -71.3192L675.316 -72.2373L669.368 -71.7776L665.65 -71.7701L664.699 -70.7188L663.581 -70.9092L662.519 -69.9462L660.504 -69.267L657.91 -67.6637L658.638 -65.4249L659.81 -64.8439L661.294 -65.2324L661.907 -64.6077L660.82 -63.5104L659.862 -63.4829L657.995 -62.1372L657.974 -61.2567L657.423 -61.9226L657.673 -65.0694L655.714 -67.1887L655.547 -68.4305L656.174 -69.6064L654.64 -71.4624L653.505 -71.8467L650.758 -75.5043L649.888 -75.8432L649.771 -74.8405L651.897 -71.4794L651.834 -69.7047L650.116 -68.4721L646.747 -68.4743L645.449 -68.0022L643.196 -68.5769L639.179 -72.971L639.361 -74.604L640.538 -75.4955L640.517 -76.8336L638 -76.3093L637.77 -74.4244L636.354 -73.3312L633.764 -75.6967L631.258 -76.0024L629.297 -74.9326L629.17 -72.1462L627.45 -70.5154L628.292 -68.205L630.024 -67.0085L632.902 -68.3727L633.379 -69.4354L636.918 -70.6176L637.409 -69.2512L636.873 -67.4879L633.228 -65.7517L633.985 -64.34L632.402 -62.7551L630.191 -62.4906L628.552 -63.7926L628.505 -63.1593L629.081 -61.2758L627.475 -59.5734L624.557 -58.0947L625.274 -56.5685L624.145 -55.9288L622.82 -56.0854L619.885 -54.419L616.746 -54.5726L613.754 -54.8226L612.436 -53.1924L612.876 -50.8814L615.225 -47.5344L616.473 -46.9749L615.161 -46.8172L612.857 -47.1232L612.061 -46.1149L612.324 -45.3768L611.256 -43.9987L609.324 -42.6986L607.67 -42.8592L606.89 -41.9348L607.568 -43.3794L609.17 -44.1983L611.161 -48.3137L610.137 -49.2856L610.194 -50.6452L611.105 -51.3913L611.337 -53.3799L610.955 -55.8023L612.186 -57.8459L614.059 -58.5493L614.99 -59.8814L614.63 -63.288L614.274 -64.3022L615.089 -65.2205L616.253 -65.1782L616.894 -64.7916L619.347 -65.1709L621.559 -68.5207L621.551 -69.926L620.946 -71.8492L622.701 -75.5888L624.366 -77.125L626.294 -79.6565L625.833 -82.1444L625.284 -82.2381L624.026 -81.3084L622.648 -81.474L620.808 -82.3942L622.642 -82.1164L624.967 -83.3668L626.648 -83.8257L627.738 -85.3213L627.641 -86.2565L628.821 -87.1647L630.613 -89.5633L630.309 -90.4645L631.31 -91.9752L633.68 -92.594L633.826 -93.9385L632.937 -95.2341L632.942 -96.0306L634.641 -97.8384L634.508 -99.4556L635.452 -100.664L636.21 -100.795L637.914 -103.209L638.582 -106.336L638.529 -109.24L637.454 -112.058L638.137 -112.86L637.964 -114.068L637.043 -114.52L636.081 -114.181L635.003 -115.058L634.426 -116.457L633.894 -116.547L632.603 -114.861L631.782 -114.394L630.966 -115.209L630.29 -117.335L630.734 -117.745L630.023 -118.438L627.819 -119.074L626.929 -120.751L627.379 -121.194L629.725 -120.915L632.477 -119.302L633.613 -117.861L634.553 -118.567L635.219 -118.506L635.746 -117.428L635.808 -116.499L636.448 -116.303L636.879 -117.512L635.804 -119.463L635.902 -121.041L635.049 -122.816L634.08 -123.692L633.366 -123.692L632.321 -123.298L631.257 -123.965L631.241 -125.805L629.187 -128.391L629.452 -129.785L628.344 -131.083L627.667 -132.533L626.503 -132.766L624.926 -132.082L624.668 -130.531L626.213 -130.181L627.19 -129.252L626.758 -128.424L625.664 -127.969L625.384 -126.786L624.569 -126.544L622.197 -130.345L622.53 -131.519L621.901 -133.412L620.451 -133.971L614.65 -138.617L613.024 -139.501L612.673 -140.063L608.805 -140.428L608.72 -141.812L609.468 -142.568L609.362 -143.644L607.5 -143.58L606.909 -144.322L605.082 -144.252L603.519 -143.253L602.968 -143.728L601.149 -142.634L600.225 -141.145L597.883 -141.544L596.69 -142.008L594.135 -140.224L591.074 -140.018L589.827 -139.815L589.123 -140.541L587.846 -140.759L586.989 -140.298L586.815 -138.612L588.017 -137.904L588.986 -137.895L589.434 -135.531L589.127 -132.567L587.522 -130.483L584.892 -130.81L582.506 -129.241L579.049 -129.067L577.926 -129.519L579.573 -130.382L581.032 -130.636L581.581 -132.466L580.11 -136.097L581.728 -138.248L582.093 -139.781L582.919 -140.662L582.36 -143.306L582.666 -144.918L580.79 -147.474L579.266 -146.971L578.236 -147.909L577.306 -147.929L576.511 -146.157L574.312 -146.342L573.619 -147.222L571.753 -146.656L569.834 -144.748L568.202 -145.026L568.301 -146.222L569.862 -147.689L570.015 -148.877L568.821 -149.34L565.265 -145.856L561.011 -145.055L559.698 -145.66L561.493 -147.59L563.461 -147.636L565.792 -149.978L565.589 -151.798L566.712 -153.08L566.905 -153.809L568.797 -154.51L568.729 -155.215L566.24 -156.28L565.724 -157.131L565.976 -159.515L565.243 -159.9L562.604 -158.443L560.333 -159.211L559.857 -161.719L558.337 -161.909L556.411 -160.642L554.752 -163.282L553.591 -163.532L550.802 -161.962L550.154 -160.669L548.51 -160.498L549.293 -158.649L547.368 -157.382L546.46 -154.729L546.74 -152.636L544.527 -150.915L542.828 -143.422L544.579 -141.269L544.215 -139.355L542.637 -139.624L542.526 -137.598L543.781 -135.338L545.506 -135.166L547.015 -132.412L549.264 -131.526L546.487 -130.405L546.891 -128.291L546.655 -127.048L549.747 -126.261L552.046 -126.701L554.523 -125.187L557.237 -124.534L557.705 -123.431L556.08 -122.686L554.63 -123.245L553.282 -123.284L551.396 -124.628L547.182 -123.752L546.152 -124.69L544.318 -124.292L542.685 -124.951L541.124 -125.217L539.718 -124.175L536.201 -124.843L534.713 -123.762L534.914 -123.087L536.565 -122.233L536.697 -120.807L538.789 -120.831L539.695 -119.914L541.733 -120.711L542.953 -118.267L544.924 -116.596L546.24 -112.923L543.892 -109.821L541.266 -109.108L543.439 -112.637L542.652 -113.794L543.099 -116.145L540.455 -116.786L539.882 -117.334L540.012 -118.404L539.107 -118.94L537.299 -118.295L535.06 -118.555L532.767 -117.091L534.476 -116.158L533.312 -115.334L531.427 -115.725L532.339 -114.165L531.814 -113.232L528.936 -111.868L528.945 -113.652L528.253 -113.96L526.836 -113.248L527.163 -111.407L526.166 -109.723L524.729 -109.968L524.892 -112.557L523.82 -114.335L523.298 -113.713L523.395 -112.102L521.365 -109.9L520.262 -107.661L518.671 -109.215L518.859 -110.205L521.361 -113.731L520.879 -115.148L519.042 -115.79L514.172 -115.026L512.575 -115.87L509.763 -114.564L508.316 -115.14L506.983 -116.32L504.709 -116.396L506.349 -114.331L504.803 -113.329L504.275 -113.731L504.163 -114.582L503.551 -114.929L502.543 -113.576L501.449 -113.121L500.695 -109.54L501.553 -108.371L503.856 -109.885L504.673 -108.792L507.929 -110.023L508.927 -109.593L508.231 -108.047L503.042 -106.956L501.862 -105.371L499.546 -104.553L495.662 -104.643L495.15 -103.395L495.618 -102.293L492.556 -102.173L491.095 -103.064L490.138 -103.036L489.413 -101.634L488.355 -101.364L486.01 -101.07L485.178 -100.259L485.953 -98.6534L485.213 -98.7101L484.418 -97.3203L483.413 -97.041L482.843 -98.2821L482.204 -98.391L480.148 -96.4361L480.261 -95.5848L479.557 -95.0634L479.264 -93.5187L477.219 -92.0124L477.201 -90.4728L474.906 -90.1533L471.957 -90.5346L470.062 -89.5229L469.702 -87.9202L470.984 -87.6323L472.046 -88.5953L475.915 -86.9826L474.774 -85.8944L473.076 -86.4959L472.567 -85.9412L473.674 -84.7299L472.732 -81.5103L470.956 -80.7384L471.051 -79.5087L470.509 -78.0064L469.093 -80.8651L467.45 -80.6946L466.082 -83.4237L464.889 -83.8872L464.38 -83.3325L465.309 -82.1514L465.153 -80.6528L463.976 -79.7613L464.777 -77.9087L466.621 -78.3572L469.199 -77.0857L471.12 -76.4983L471.146 -74.8992L472.612 -73.3666L474.327 -73.525L475.315 -73.8073L475.783 -72.7049L473.846 -72.1509L471.74 -72.4405L470.38 -74.1457L469.312 -73.8251L468.8 -72.5777L467.843 -72.1687L469.431 -69.5407L470.902 -69.8619L473.798 -69.4897L474.228 -67.1284L475.121 -66.1441L476.161 -66.9896L478.817 -66.4156L478.013 -65.0791L480.19 -63.0441L482.283 -62.6873L483.078 -60.1252L481.271 -57.365L477.436 -55.9734L475.729 -54.4096L475.589 -53.2894L478.047 -49.941L479.792 -48.8117L476.568 -49.2917L473.503 -52.6223L473.773 -54.4309L476.04 -57.4939L477.519 -58.1433L477.557 -59.4022L478.861 -60.9652L478.407 -61.7534L471.934 -60.3605L468.584 -59.7875L467.285 -57.9635L465.039 -57.5144L463.454 -58.4258L461.278 -58.346L458.408 -56.7377L451.376 -55.5789L446.487 -55.3895L444.394 -55.7462L441.841 -54.0667L439.419 -54.4275L437.918 -53.6606L439.659 -51.8384L439.246 -50.0541L438.413 -48.4628L439.258 -47.2267L440.611 -46.9267L440.813 -45.8696L439.921 -44.739L442.661 -42.4867L444.172 -38.3983L443.425 -35.5269L443.876 -34.046L444.656 -33.913L444.554 -31.6423L446.744 -29.6745L448.819 -29.5115L454.713 -28.2469L457.039 -29.1158L456.806 -27.8901L457.328 -26.3972L456.858 -24.3105L459.22 -22.5733L460.151 -20.0571L464.634 -19.1717L467.281 -16.8139L468.469 -16.6114L469.848 -14.3309L469.508 -10.0381L469.765 -8.20901L468.94 -6.3736L470.413 -3.81709L471.905 -2.41875L473.936 1.82751L474.29 5.64926L476.273 8.0325L476.61 9.82333L473.961 13.064L472.879 13.0703L471.609 12.3338L472.781 15.0297L475.678 15.7833L477.157 17.2488L479.745 21.07L482.52 22.7562L482.914 22.5114L484.144 23.1717L487.345 21.5506L490.243 21.5246L493.135 24.1322L495.324 25.3372L496.872 25.6704L497.519 27.9475L497.287 31.288L497.01 28.1207L495.951 26.2761L493.343 25.8317L490.148 22.4098L488.238 22.1534L485.136 24.3114L484.631 26.5828L484.744 27.8155L481.915 23.8146L478.416 23.1488L476.777 21.4654L477.23 19.7572L475.997 17.3804L473.437 16.3027L470.656 16.002L467.904 13.5223L468.803 13.0341L469.166 11.1201L470.478 10.5809L470.262 9.20947L470.724 5.33606L470.217 2.32025L469.027 1.16403L467.56 3.58337L466.154 3.84657L466.013 5.93723L464.731 7.00131L465.034 8.1971L464.201 9.78839L463.061 9.71547L463.257 4.44478L464.717 3.22021L464.876 1.32332L462.473 -1.25307L462.919 -3.98506L462.152 -6.02242L462.635 -8.17618L465.443 -9.17099L465.747 -10.3845L465.734 -12.0508L466.748 -14.8768L464.761 -15.4061L463.998 -15.3454L462.922 -16.8115L458.869 -15.3356L454.174 -15.4943L451.714 -16.0351L448.788 -20.1045L447.008 -21.4306L446.924 -23.1089L441.992 -24.5215L440.104 -26.2474L438.41 -28.7028L432.375 -29.6101L430.812 -30.6391L428.651 -29.8635L425.97 -27.1309L425.424 -25.3174L424.33 -24.8624L423.584 -25.5616L422.952 -24.6466L423.829 -23.2838L427.031 -24.5234L430.083 -23.2405L431.079 -20.0027L428.559 -17.0522L426.051 -16.9597L422.424 -19.1724L420.56 -22.1769L419.248 -22.4006L416.519 -21.1496L415.563 -20.3592L414.239 -20.1343L416.141 -15.9793L417.165 -15.6835L417.435 -13.54L419.981 -10.558L422.819 -9.88358L424.215 -8.36302L428.397 -7.33827L429.654 -8.26802L430.43 -8.01445L430.503 -6.66722L433.448 -6.16537L433.967 -3.59819L435.014 -3.03836L435.169 -1.34795L438.62 -0.430344L440.316 -1.16396L438.781 0.169052L435.093 0.112427L433.041 -1.51999L431.444 -1.9828L429.554 -4.85297L428.117 -5.47931L426.332 -4.95152L424.345 -5.09943L422.443 -3.56895L422.103 -4.96152L420.743 -6.28531L418.981 -5.87506L415.912 -6.39807L413.842 -8.22426L411.679 -8.21159L411.073 -9.64952L412.769 -10.3831L412.993 -11.5584L411.708 -12.9907L411.967 -14.3506L409.754 -16.9639L409.066 -18.9358L410.236 -20.8511L409.292 -23.3001L410.17 -26.8598L408.601 -28.9127L408.901 -31.5483L408.286 -32.5544L407.173 -33.0561L407.195 -35.2885L405.03 -37.3907L403.795 -36.96L406.191 -29.7221L406.458 -25.1525L404.852 -21.7167L401.379 -19.05L399.223 -17.6321L399.118 -16.6966L400.207 -15.2976L400.24 -12.6747L398.469 -9.71773L398.154 -7.67409L401.089 -5.3885L404.47 -1.50145L404.887 0.927063L407.122 1.30798L408.638 3.54247L409.564 7.14964L408.041 12.3675L407.19 14.3372L408.589 17.5744L407.56 21.1603L408.242 23.2527L410.893 27.0326L410.83 28.8073L410.165 30.8606L410.877 32.1259L413.158 33.2255L415.993 32.1833L418.886 33.6298L420.233 32.9059L421.243 30.7726L423.722 29.0978L425.768 30.0878L427.368 29.8579L430.161 32.1193L432.106 31.8095L432.801 33.8347L436.61 36.1479L439.549 36.5796L441.049 39.3832L440.928 40.6972L443.264 42.5687L443.603 43.9613L444.057 44.3679L444.201 45.7273L445.267 46.8623L443.691 47.7377L441.905 47.8839L441.193 50.5706L441.988 53.1328L442.916 53.9324L442.072 55.1926L442.838 56.8484L444.819 57.1168L445.638 58.7818L448.121 59.205L449.833 57.33L450.182 58.6722L451.968 58.5259L453.056 59.162L451.975 59.5498L451.214 60.3734L448.559 60.1809L447.039 60.3725L444.587 60.4574L442.593 58.5227L440.522 58.0485L439.561 55.9779L440.552 55.3842L440.602 53.2952L439.334 51.1031L439.224 49.1776L437.892 47.9972L438.587 46.0705L436.923 43.1694L436.143 43.0364L435.67 41.673L433.113 39.9026L433.537 37.6696L431.27 34.6657L428.906 34.3842L424.767 36.9894L422.421 36.9016L420.692 38.5829L417.637 40.1075L416.991 44.851L417.766 46.4565L420.99 49.0513L422.458 55.4897L421.911 56.9218L418.387 60.9146L417.409 63.5559L418.457 66.2306L416.221 69.8017L415.745 71.2459L412.899 73.1182L412.551 74.2722L410.779 74.7328L409.39 75.9695L409.004 78.0011L409.827 79.3547L409.591 80.9786L406.713 81.9613L403.506 80.7214L403.083 79.7653L400.058 79.3018L396.77 79.2613L394.161 78.054L387.946 75.972L386.047 73.5337L385.573 71.7889L382.802 71.8192L381.533 73.1976L381.066 72.4767L379.93 72.0924L381.584 70.1382L384.155 70.3858L389.169 70.599L390.218 69.7031L393.739 72.47L395.003 72.5641L395.648 71.5819L397.492 71.8963L397.185 73.1267L394.319 74.0422L395.705 75.6132L398.951 75.9756L400.57 74.5876L402.55 74.093L402.591 72.8174L401.186 70.6712L401.397 69.5631L403.355 70.9195L404.333 70.0115L405.105 66.6244L407.338 65.8609L407.248 64.8921L405.895 64.9736L405.636 64.2188L407.709 63.6188L408.451 60.1051L407.899 59.0577L409.328 57.8972L409.357 57.0702L411.164 56.0434L411.38 53.4628L409.762 51.2804L409.232 48.0007L410.118 45.8462L410.527 44.0786L411.321 44.5259L411.567 43.2331L409.419 40.371L408.225 39.9075L407.313 38.348L404.727 37.0232L402.066 32.2363L401.996 28.6537L401.187 27.6143L402.38 26.3444L400.755 24.9753L400.05 23.0004L401.118 20.9464L399.145 16.7794L399.614 14.3113L398.151 12.0859L398.889 10.9983L399.153 9.89923L397.987 8.22725L398.3 3.11507L397.502 1.24565L395.667 -0.471024L395.545 -3.68129L394.754 -4.52684L393.345 -4.24689L393.428 -4.68341L391.512 -5.58212L390.74 -7.88034L389.219 -9.80354L388.927 -11.8294L390.079 -12.2051L390.834 -13.6712L390.312 -15.1641L390.913 -16.2057L390.236 -17.6558L391.862 -21.972L391.227 -24.6977L391.708 -27.6144L390.961 -28.695L391.338 -30.6762L390.572 -32.7136L392.043 -33.0348L391.668 -34.6242L389.982 -35.2928L387.582 -35.7711L382.797 -38.6321L380.785 -39.0271L379.656 -38.3874L378.279 -39.3328L376.802 -39.6539L374.455 -38.962L372.03 -39.306L369.908 -38.8356L369.453 -39.6238L370.179 -40.2627L368.888 -41.1762L367.434 -41.0426L367.055 -37.6058L365.993 -34.9094L367.15 -32.8055L366.446 -32.2841L365.02 -29.407L365.878 -28.2381L365.461 -26.3331L365.81 -24.9909L364.908 -23.81L364.631 -21.2919L365.58 -19.1541L364.02 -17.3053L363.921 -15.7274L364.315 -13.5629L363.612 -12.6599L361.478 -11.741L357.617 -7.80563L356.306 -7.26642L356.367 -5.85204L357.178 -4.04979L355.931 -2.78894L355.148 -0.11438L356.886 2.10602L358.131 1.62491L359.104 2.86539L359.781 6.04878L361.71 6.49887L363.012 8.12485L361.828 7.61104L360.293 8.94405L360.098 11.0256L362.364 13.2666L362.013 15.1134L360.424 16.0559L359.419 14.9833L359.183 16.2257L359.949 19.9964L361.033 21.3253L361.107 24.2151L362.186 23.0644L363.558 24.321L365.568 24.7329L367.171 26.2195L369.215 24.3318L369.984 25.2949L369.432 28.1995L370.451 29.9678L371.391 30.3188L374.168 34.8828L375.828 35.6857L377.276 35.1005L378.908 35.3787L379.046 36.0956L380.629 36.2441L378.845 37.1534L378.08 41.5644L377.337 42.5818L378.197 44.5137L377.64 45.3202L376.581 45.209L376.608 47.571L376.286 48.5908L374.529 47.91L373.2 43.9221L371.178 41.844L368.592 40.9006L367.909 38.4268L366.353 36.6883L361.847 35.5389L357.57 32.1233L354.767 31.2641L354.741 29.6651L353.451 29.3239L352.251 27.8366L349.601 28.2864L347.711 29.3682L347.201 27.4266L347.949 26.6701L347.699 25.4834L342.564 22.6321L340.387 20.5971L332.187 18.7487L325.497 18.4925L323.957 17.7275L322.207 17.6891L320.946 16.5208L320.166 16.7692L318.787 16.2221L317.582 16.9702L318.087 18.8416L317.829 20.2016L315.883 20.5115L315.756 21.183L316.643 23.2583L317.696 24.079L318.053 27.208L318.646 28.7131L319.254 27.3434L320.278 27.6393L321.211 30.5369L321.122 32.0645L322.98 32.8839L324.88 35.7037L322.662 34.9443L322.009 34.1398L320.674 34.0336L319.448 36.6326L317.615 37.4122L315.444 36.0195L314.048 36.7176L313.73 37.6168L315.164 39.9933L315.691 40.6898L315.467 41.6743L314.381 42.4772L310.053 41.5488L309.271 40.1676L309.869 38.9521L309.362 37.1844L310.997 36.1976L311.13 35.3017L309.695 33.4104L308.458 32.6967L310.042 31.4933L309.828 30.8849L308.408 31.319L307.473 31.2289L304.801 32.9574L303.401 32.9963L301.553 34.0506L301.224 34.9133L299.043 34.7321L297.956 35.535L297.758 36.5759L296.252 37.2726L292.51 36.6348L291.322 35.947L290.465 36.2169L289.343 35.9563L288.472 35.0452L285.943 36.0182L285.284 36.7898L283.473 36.776L281.714 38.0361L281.609 38.7809L282.705 39.8518L282.085 40.8034L282.258 41.8209L281.58 42.3988L280.367 41.1693L279.815 39.9312L278.938 39.9204L276.773 41.5795L275.542 43.4323L275.909 41.5015L274.242 40.5414L272.896 41.0746L271.767 40.8475L270.574 40.9563L269.192 40.4259L269.089 39.0391L271.148 37.7434L272.882 37.9695L273.815 36.9151L272.973 34.9862L273.487 34.3979L274.699 33.9977L273.047 31.8962L271.979 32.2169L270.856 31.7655L270.418 30.8934L273.879 30.0272L275.19 30.164L277.07 29.6177L276.875 28.9085L273.688 28.816L268.778 29.8859L267.215 30.6941L267.695 31.5386L267.922 33.1374L268.375 34.22L267.191 35.2488L266.09 35.3559L264.81 33.4216L265.539 32.7659L266.185 32.5466L266.113 31.4771L265.581 31.3864L261.82 33.8308L261.786 34.5877L262.827 36.0478L263.755 36.6566L263.337 37.7987L260.999 39.3069L260.177 38.5255L260.98 37.6743L260.9 36.3607L260.292 36.1877L260.33 34.9288L256.789 35.348L256.165 36.3164L253.626 36.9583L251.792 36.299L250.664 36.6441L250.489 37.5676L246.183 41.0459L245.16 41.1314L241.244 44.2947L239.667 44.7886L238.578 43.3896L237.744 43.2476L238.147 44.9803L240.129 46.9821L240.283 48.291L237.669 46.8228L236.766 47.6223L232.031 47.3873L231.008 47.8543L232.009 49.6196L231.799 51.1092L230.331 52.7656L230.642 55.3667L229.728 56.9963L226.414 57.7661L225.786 58.5605L223.959 58.2491L222.991 59.1067L222.286 57.1319L219.704 58.2866L218.125 58.0175L215.477 53.1633L212.416 49.7122L211.292 48.8794L211.894 46.4859L212.531 45.641L213.361 46.2852L214.311 45.2338L214.221 44.265L215.235 43.5539L217.926 43.9432L218.917 42.9681L221.976 43.5415L222.532 42.3535L220.672 39.0377L220.58 37.6875L218.677 37.103L217.236 34.7601L217.588 33.2947L215.691 31.6193L211.145 30.3938L207.886 30.0984L206.375 30.5342L204.269 30.2446L201.164 27.41L199.195 27.0744L199.1 27.9596L202.717 31.9561L204.884 34.0415L205.539 37.7239L205.188 39.5708L205.882 40.8331L205.067 41.2662L204.702 42.7988L204.869 44.0405L204.12 44.4156L203.415 48.1261L202.377 50.116L202.701 52.2684L205.259 52.5832L206.956 53.9645L207.952 55.4689L207.462 56.2173L207.588 57.3829L207.098 58.1314L206.993 59.0669L207.668 59.754L206.86 60.8295L206.212 64.6192L205.31 65.4187L206.086 67.7871L205.769 70.8012L204.828 69.6874L204.558 67.5439L202.705 65.6335L200.261 67.1236L200.856 65.4396L200.144 64.1743L197.523 63.4156L194.982 63.2946L193.525 61.7115L191.422 61.0237L190.085 61.6972L187.381 65.3271L184.167 67.0153L182.074 67.04L180.392 68.0879L179.461 70.0959L177.106 72.1734L174.406 73.5678L173.939 74.9616L174.402 77.5366L177.492 81.894L179.168 85.5076L177.587 86.6943L176.261 86.5377L175.986 88.2761L174.272 89.1975L173.092 90.4002L171.202 87.9115L166.191 84.5093L164.328 84.0011L163.944 82.8436L160.968 82.2151L159.644 80.7066L158.784 78.7748L156.455 77.9271L154.722 76.3491L152.758 76.0837L152.17 77.0582L152.483 78.2036L151.918 79.0605L152.337 80.0333L151.022 80.8838L149.341 80.476L150.161 82.9039L150.263 84.776L152.407 86.216L153.551 88.3871L155.455 89.7343L157.215 89.3409L158.181 89.5575L159.722 88.8669L159.671 90.1929L161.438 91.2048L161.409 91.8411L160.67 92.5473L161.779 93.8455L161.169 96.3764L160.04 96.6346L158.581 96.5072L156.354 98.1038L155.427 97.8764L154.16 96.2564L151.69 95.766L150.759 94.6888L148.052 94.1926L147.383 93.472L147.568 91.4408L146.229 90.2939L145.346 88.5833L144.691 88.3677L142.862 89.3213L139.629 87.5397L139.101 86.0803L138.439 85.1353L139.394 83.9634L139.417 82.0088L139.711 80.4641L138.232 78.9986L138.561 77.6508L136.632 75.0858L136.841 73.2148L135.545 72.6126L136.136 71.2399L137.532 71.0271L138.292 68.47L138.457 66.834L137.907 66.5496L138.242 65.4626L139.015 64.5718L138.128 64.2299L136.699 61.4384L133.073 59.2256L131.886 59.786L131.197 58.7845L129.832 58.5518L129.03 58.9178L127.065 58.2709L127.968 57.4714L129.718 57.5098L130.416 56.346L128.553 55.8378L128.646 55.3509L129.983 55.0589L128.966 54.0534L127.654 54.5926L124.721 54.8033L124.414 54.3003L125.383 53.4427L127.239 52.9271L126.812 52.2823L124.363 51.2929L124.138 49.9718L122.352 48.3848L122.409 45.9677L120.805 44.4811L121.288 44.0607L122.862 44.2595L123.23 44.825L125.412 45.3876L125.438 46.9867L128.611 50.5262L129.759 50.8432L130.184 50.3436L131.716 51.8182L134.536 52.2989L134.983 51.6817L135.877 53.0474L134.703 53.5407L135.264 54.1562L135.088 55.0796L136.778 55.437L137.712 54.7641L140.431 55.2968L139.633 55.5423L141.106 55.9839L142.839 56.0193L142.579 56.9978L144.367 59.3478L145.828 58.6954L147.181 59.3768L147.365 60.2402L149.742 60.6453L151.099 61.3099L152.542 60.6545L154.335 62.3987L157.008 63.6517L161.959 64.7729L165.962 65.0045L166.604 64.4206L169.158 64.8559L170.575 64.1441L173.471 64.1349L176.053 63.3616L180.115 59.7205L180.666 58.653L182.998 56.6931L183.208 55.585L184.03 54.4423L184.88 52.0911L185.173 50.165L185.488 48.1214L184.95 47.3883L184.258 47.4611L183.264 45.177L182.336 44.3774L182.137 42.2461L180.651 40.1382L179.201 39.579L178.671 40.2513L176.868 39.0426L177.261 38.0349L174.236 35.162L174.672 33.6415L173.173 31.6008L172.251 31.4436L172.488 32.316L173.49 34.4628L172.156 34.7381L170.361 32.5255L169.017 32.1751L166.946 29.586L166.094 29.4409L165.963 30.1293L166.107 31.1072L164.852 30.5812L163.369 27.3991L161.83 26.6341L160.847 25.0625L155.61 20.3392L147.641 14.3874L145.772 13.2369L145.378 13.8631L143.752 12.494L141.742 11.7007L141.784 12.5399L140.344 12.9878L138.759 12.0763L136.298 11.5355L135.47 9.92096L133.969 8.95448L133.815 9.37895L134.514 10.7114L134.107 11.4048L133.09 10.3994L131.299 10.2848L130.524 10.7941L130.646 11.8895L129.152 13.6802L127.29 13.5535L128.63 12.1872L129.794 11.7444L129.337 10.973L128.024 10.7493L128.519 9.88029L129.098 9.33772L128.441 8.84439L127.52 9.45009L125.755 10.9346L125.953 9.89359L126.266 9.30563L125.915 8.74315L124.964 9.60373L124.481 9.64267L124.551 8.4066L123.221 7.69463L121.645 8.56998L121.494 7.05351L120.891 6.4655L119.513 7.35725L119.294 5.81195L119.668 4.0383L120.79 3.05074L120.684 4.09004L121.757 5.57298L123.827 5.6658L125.016 6.44057L126.735 5.5894L126.755 4.70894L125.827 3.90932L125.507 3.28273L124.293 2.53851L123.501 3.04489L122.719 2.14894L122.023 0.799637L120.45 -0.265915L118.846 -0.695145L118.393 -0.235138L118.803 0.788071L119.288 1.02686L119.17 1.64803L118.082 1.68796L117.142 1.33699L116.988 1.95216L118.261 3.15707L117.445 3.39949L116.333 3.08847L115.436 4.04509L114.82 6.03737L114.269 4.8862L114.608 3.29721L113.999 2.55208L112.178 2.01637L112.133 2.06071L111.902 3.75481L110.596 4.8494L108.95 3.87549L107.49 3.74815L107.224 6.11214L105.55 7.59491L103.442 7.51288L100.737 9.21858L100.12 12.0775L99.0595 12.0701L99.0467 12.1372L96.6135 12.6065L95.0399 13.2743L96.3404 13.9467L95.5529 16.0659L94.4054 18.7303L95.3385 20.2761L96.123 24.2405L97.2617 24.6079L99.3846 26.2524L100.34 28.3566L100.723 29.9993L104.196 33.0181L105.082 34.1396L103.806 36.4183L101.564 38.7748L99.3863 42.4251L101.042 44.8913L101.349 47.3185L103.722 54.1017L105.977 63.2395L104.349 63.3261L102.968 68.5681L102.771 69.9905L104.379 70.6807L102.91 71.9557L102.396 74.6588L103.255 76.2092L105.316 76.9246L105.771 78.5794L104.932 79.2338L104.485 82.2603L105.064 84.3178L107.346 86.4748L107.081 88.9257L105.065 90.7661L103.914 93.0659L106.896 99.0516L108.997 100.138L111.967 104.839L112.065 107.404L108.474 112.806L103.935 117.805L101.353 121.559L98.2751 124.554L95.2286 128.056L92.9923 128.645L88.336 131.561L88.2098 133.862L88.2276 133.865C88.411 133.671 88.5848 133.528 88.7008 133.495C89.1134 133.444 91.367 132.667 91.367 132.667L93.3079 132.669L91.8779 133.448L92.2621 134.605L91.9908 136.032L90.3738 134.231L89.8389 135.215L91.4619 137.658L93.4617 138.12L94.2677 139.852L96.2188 140.185L97.0568 140.016L98.4226 140.248L99.544 142.537L98.2613 143.601L95.8603 142.36L94.7435 142.551L94.011 143.899L91.6339 145.037L90.1195 143.756L89.0034 144.329L88.8389 145.964L87.1854 146.185L86.7167 144.701L85.8884 144.82L85.7129 145.744L86.2571 147.119L85.3866 148.808L85.3933 148.965L85.9312 150.374L85.9865 150.661L85.657 151.142L83.9993 152.541L82.9525 154.772L81.817 155.255L80.0311 161.277L82.7051 168.788L82.3923 170.433L80.8126 171.325L80.7705 172.895L79.1454 174.508L80.8213 175.036L80.8015 176.489L80.2821 177.198L80.9058 177.962L81.1471 179.39L80.6977 180.406L81.4353 182.594L81.856 183.463L82.3315 185.971L83.2294 187.701L83.0904 190.07L83.8109 190.037L85.1221 191.231L87.1857 190.49L88.4292 193.389L90.7364 192.812L92.5542 193.364L93.6512 196.359L96.2167 195.098L98.834 194.816L99.6038 196.16L100.845 196.372L104.342 198.303L104.478 200.285L103.452 202.311L104.629 204.21L104.16 206.678L105.767 209.015L106.332 211.434L108.005 214.77L109.538 216.245L109.766 219.091L112.505 220.286L115.234 223.56L115.192 225.13L117.159 226.921L116.009 227.574L113.757 229.981L109.157 229.804L107.611 227.824L106.62 228.99L106.361 231.026L107.605 233.925L106.932 236.116L108.513 238.586L108.121 240.652L109.447 241.19L111.513 241.108L111.658 239.383L113.184 238.481L117.218 240.573L121.635 241.326L124.031 240.573L125.995 241.029L126.589 245.03L128.13 246.749L126.789 248.41L128.59 251.75L133.503 251.911L134.973 253.618L134.896 255.373L136.465 255.883L136.041 258.116L136.459 260.926L139.696 265.187L141.57 263.808L143.763 265.464L145.852 265.266L147.647 265.936L150.976 264.319L152.377 264.367L153.548 268.709L155.923 270.761L156.418 272.492L157.82 271.57L160.817 272.756L163.11 273.217L164.546 274.432L166.466 274.447L168.473 276.124L170.991 277.038L172.539 276.02L172.927 278.027L173.991 278.884L173.629 281.076L171.844 282.661L169.968 282.706L168.73 286.135L170.901 288.203L170.826 290.617L169.191 293.441L169.099 295.558L167.325 296.417L163.112 295.941L160.713 298.445L159.506 298.724L158.31 302.317L158.33 302.406L158.707 302.349L160.406 302.951L162.54 302.032L164.889 302.103L165.255 303.067L164.56 304.214L159.618 305.746L157.484 306.665L158.185 307.599L159.285 307.787L157.962 308.775L155.939 308.048L152.942 307.919L153.653 310.536L154.671 311.923L155.716 311.339L156.015 312.273L157.678 313.06L157.55 313.731L156.385 313.793L155.487 314.662L154.352 314.278L153.506 314.775L153.388 315.397L151.232 316.814L150.913 318.493L151.659 319.193L150.822 321.477L149.164 320.951L148.729 321.12L147.552 319.897L145.737 319.137L145.525 319.863L145.958 321.15L144.558 321.484L143.212 322.208L145.186 322.804L146.174 322.903L148.164 325.149L148.052 326.413L149.599 328.583L152.858 328.878L155.828 331.361L157.993 332.302L162.817 337.076L163.558 339.248L165.027 340.001L165.353 341.079L166.525 342.423L167.878 342.723L168.2 343.922L169.714 344.821L170.618 344.975L171.62 347.122L173.275 347.664L174.043 348.246L175.071 347.849L176.947 350.023L176.888 351.105L178.933 351.714L180.243 354.745L181.053 356.166L180.866 359.653L181.879 362.512L181.118 363.336L181.237 364.829L180.928 365.106L180.922 365.14L181.981 365.442L182.073 366.983L183.009 367.454L183.147 368.171Z" fill="url(#paint0_linear_365_10376)"/>
<path d="M1006.34 334.014L1007.53 334.919L1008.47 338.2L1008.02 340.982L1007.1 342.953L1007.62 345.482L1007.04 347.059L1008.08 348.42L1009.01 350.579L1008.37 350.87L1008.09 352.118L1008.92 355.489L1008.69 357.384L1008.72 359.819L1007.88 362.779L1008.1 363.991L1007.29 365.44L1006.68 368.15L1006.86 371.629L1006.08 372.636L1005.54 374.807L1006.65 376.698L1008.32 381.33L1007.75 382.859L1008.21 385.419L1006.7 388.589L1006.16 391.338L1006.61 394.222L1006.43 395.989L1007.61 399.441L1007.41 400.695L1006 403.03L1004.54 406.217L1004.52 408.435L1005.81 410.205L1006.12 412.968L1007.76 414.858L1008.18 413.024L1009.11 411.437L1008.95 409.718L1009.08 407.734L1010.39 405.311L1012.34 404.572L1012.98 405.166L1012.56 406.292L1013.28 407.238L1016.62 408.028L1017.24 407.423L1018.07 407.502L1018.32 408.472L1017.69 408.893L1017.38 410.129L1018.44 412.457L1018.16 413.937L1018.77 415.226L1019.22 414.165L1019.18 413.209L1019.91 411.607L1020.58 409.805L1019.49 408.049L1019.85 405.816L1019.74 404.313L1018.34 404.479L1017.27 404.121L1015.5 402.008L1016.02 399.577L1015.61 397.411L1014.21 395.046L1013.07 394.336L1012.32 392.386L1012.62 389.428L1012.14 386.985L1012.24 384.866L1013.26 382.347L1014.09 379.187L1013.68 377.275L1015.04 374.783L1015.47 373.171L1015.04 370.8L1016.2 370.032L1016.94 368.975L1017.25 368.063L1018.05 368.206L1018.91 368.712L1021.01 368.941L1022.86 369.814L1024.22 371.499L1024.52 374.116L1026.02 375.324L1027.19 376.762L1027.86 379.467L1028.65 380.182L1028.58 377.898L1027.66 375.346L1025.89 372.925L1025.38 370.331L1024.67 367.939L1025.05 366.926L1024.37 365.813L1023.86 362.529L1023.82 360.472L1022.9 359.55L1023.22 357.936L1021.82 354.356L1021 349.754L1021.17 347.658L1019.61 343.012L1019.12 339.809L1018.23 338.622L1018.84 336.981L1018.44 335.199L1017.52 334.439L1017.2 335.092L1016.22 334.638L1016.09 333.891L1016.93 332.723L1016.89 331.444L1015.67 330.02L1014.82 327.82L1014.77 325.396L1014.38 323.943L1014.78 322.158L1015.66 321.061L1015.91 321.47L1016.33 319.059L1016.92 316.397L1017.16 314.523L1015.75 313.29L1014.7 310.893L1014.89 309.816L1014.32 308.684L1014.61 307.896L1015.39 307.958L1016.39 309.939L1017.13 312.612L1017.16 310.394L1016.27 307.039L1015.08 304.488L1014.36 304.249L1014.38 302.732L1011.99 299.076L1011.51 296.942L1012.59 294.391L1012.02 293.059L1009.86 291.323L1009.54 288.738L1009.2 287.863L1008.31 288.453L1008.65 289.327L1008.3 290.476L1007.22 290.496L1006.33 289.31L1004.91 288.962L1006.25 291.818L1008.52 294.35L1008.9 295.889L1008.01 297.547L1009.03 297.127L1010.02 297.333L1010.05 298.553L1009.11 299.071L1007.82 299.147L1007.73 300.257L1008.97 300.726L1008.78 302.455L1007.2 302.742L1006.03 302.096L1005.51 300.473L1004.08 301.065L1002.4 302.855L1003.31 304.932L1003.09 306.958L1004.04 309.429L1004.54 312.385L1003.49 315.778L1003.81 316.717L1003.24 319.314L1002.92 323.405L1003.3 326.32L1004.77 327.824L1004.66 328.621L1003.69 328.874L1006.34 334.014Z" fill="url(#paint1_linear_365_10376)"/>
<path d="M12.6119 175.383L13.3587 171.454L17.1341 174.126L23.3573 175.186L28.8338 180.175L29.7879 186.421L20.7434 188.935C17.9775 188.463 12.1055 187.057 10.7448 185.203C9.38395 183.349 6.02892 183.723 4.5215 184.142L0.746094 181.471L1.11951 179.507L3.94077 175.932L8.0896 176.639L12.6119 175.383Z" fill="url(#paint2_linear_365_10376)"/>
<path fill-rule="evenodd" clip-rule="evenodd" d="M166.943 296.578L162.879 296.149L160.629 298.417L159.433 298.718L158.213 302.355L158.184 302.506L156.422 302.788L156.397 301.852L155.513 301.584L153.182 302.08L151.044 301.561L149.791 302.163L148.764 303.502L146.852 303.293L145.71 304.38L143.501 305.945L142.867 305.643L141.059 305.529L139.433 306.378L137.21 305.455L135.237 306.207L134.17 305.83L133.371 303.83L132.608 303.778L132.934 304.843L133.69 306.215L133.089 307.238L130.766 309.406L129.634 309.795L129.344 308.969L130.085 308.707L132.183 307.084L132.043 306.322L131.244 305.604L130.711 306.484L127.611 308.674L125.985 308.669L125.524 309.6L123.672 309.284L122.616 308.211L121.374 308.97L119.54 308.347L119.136 308.977L120.103 309.88L122.896 310.161L123.737 311.509L124.658 312.443L125.696 312.115L126.169 313.05L125.116 313.88L125.052 314.646L125.933 314.291L126.721 314.425L126.195 315.695L127.437 314.936L128.236 315.654L128.272 317.602L129.071 318.748L130.926 319.686L131.878 319.382L129.464 316.252L127.143 312.206L126.677 309.952L127.471 309.621L128.475 311.617L128.69 313.906L132.068 319.026L132.981 319.57L134.678 318.345L135.67 318.475L137.131 319.772L138.129 318.156L140.944 318.325L143.207 318.827L142.369 319.811L141.374 320.34L141.876 321.979L140.583 323.002L137.586 322.724L134.267 321.576L132.051 322.324L130.175 324.063L127.432 323.518L122.864 325.729L119.58 326.529L116.451 325.879L115.169 324.496L115.763 323.937L117.359 321.102L117.47 319.878L115.106 317.339L114.093 317.322L112.374 316.097L111.013 316.836L109.592 315.972L111.857 313.678L115.259 312.472L117.944 312.463L118.732 312.17L117.969 310.836L117.961 308.738L117.206 308.221L116.346 309.317L115.111 308.33L113.299 307.167L112.228 307.158C112.169 306.53 112.46 304.994 114.026 302.476L114.482 300.074C114.875 299.878 116.254 298.978 118.63 296.948C119.438 296.185 119.105 295.902 118.837 295.857L121.476 296.306C122.098 296.563 124.002 297.098 126.638 297.186C128.72 297.256 128.882 296.729 129.041 296.215C129.133 295.916 129.224 295.622 129.692 295.452C130.709 295.085 130.957 295.443 130.954 295.667L132.216 295.883L134.373 295.123L135.635 295.338C135.965 295.056 136.781 294.294 137.406 293.499C138.031 292.703 139.174 292.297 139.668 292.193L140.93 292.408L142.232 291.165L143.367 289.555C143.882 289.755 145.084 290.118 145.776 289.966C146.642 289.775 146.849 288.683 146.953 288.137L147.493 285.299L148.41 285.455L148.743 283.708L148.115 282.023C147.91 281.65 147.524 280.773 147.624 280.249L148.163 277.41L146.672 277.156L146.963 275.628L146.315 274.052L145.512 273.915L146.031 271.186L145.33 269.263L145.642 267.625L146.819 267.037L147.048 265.836L146.998 265.3L147.53 265.504L150.852 263.857L152.267 263.904L153.424 268.295L155.834 270.376L156.322 272.09L157.718 271.163L160.74 272.377L163.057 272.811L164.486 274.064L166.434 274.086L168.429 275.785L170.943 276.679L172.518 275.666L172.901 277.712L173.961 278.553L173.618 280.786L171.826 282.94L169.699 283.222L168.696 285.928L170.856 288.044L170.799 290.481L169.156 293.346L169.071 295.507L166.943 296.578Z" fill="url(#paint3_linear_365_10376)"/>
<path fill-rule="evenodd" clip-rule="evenodd" d="M622.018 214H606.434V207.107H602.141H559.093V145.838H575.072V194.303H596.417V145.838H612.635V194.542H622.533L622.018 214ZM685.123 168.814H668.309C668.19 167.418 667.872 166.151 667.355 165.014C666.858 163.877 666.163 162.9 665.269 162.082C664.394 161.245 663.331 160.607 662.079 160.168C660.827 159.709 659.405 159.48 657.815 159.48C655.033 159.48 652.678 160.158 650.75 161.514C648.842 162.87 647.391 164.815 646.397 167.348C645.424 169.881 644.937 172.922 644.937 176.472C644.937 180.222 645.434 183.363 646.427 185.896C647.441 188.409 648.902 190.304 650.81 191.58C652.718 192.837 655.013 193.465 657.696 193.465C659.227 193.465 660.598 193.276 661.81 192.897C663.023 192.498 664.076 191.929 664.97 191.191C665.865 190.454 666.59 189.566 667.147 188.529C667.723 187.472 668.111 186.285 668.309 184.969L685.123 185.088C684.925 187.681 684.199 190.324 682.947 193.016C681.695 195.689 679.916 198.162 677.611 200.436C675.325 202.689 672.493 204.504 669.114 205.881C665.736 207.257 661.81 207.945 657.339 207.945C651.734 207.945 646.706 206.738 642.254 204.325C637.822 201.912 634.314 198.362 631.73 193.675C629.166 188.988 627.884 183.254 627.884 176.472C627.884 169.651 629.196 163.907 631.819 159.24C634.443 154.553 637.981 151.013 642.432 148.62C646.884 146.207 651.853 145 657.339 145C661.194 145 664.742 145.529 667.981 146.586C671.221 147.643 674.063 149.188 676.508 151.223C678.952 153.237 680.92 155.72 682.41 158.672C683.901 161.624 684.805 165.004 685.123 168.814ZM504 145.838V207.107H520.576V188.918H529.758C534.408 188.918 538.473 188.05 541.951 186.315C545.449 184.58 548.162 182.107 550.089 178.896C552.037 175.685 553.011 171.885 553.011 167.497C553.011 163.149 552.067 159.35 550.179 156.099C548.291 152.848 545.647 150.325 542.249 148.53C538.85 146.735 534.885 145.838 530.354 145.838H504ZM520.576 175.994H526.419C528.366 175.994 530.026 175.655 531.397 174.977C532.789 174.279 533.852 173.291 534.587 172.015C535.342 170.738 535.72 169.233 535.72 167.497C535.72 165.742 535.342 164.246 534.587 163.01C533.852 161.753 532.789 160.796 531.397 160.138C530.026 159.46 528.366 159.121 526.419 159.121H520.576V175.994ZM713.273 145.838H692.643V207.107H708.861V171.446H709.338L722.933 206.629H732.711L746.305 171.686H746.782V207.107H763V145.838H742.37L728.179 180.541H727.464L713.273 145.838Z" fill="white"/>
</g>
</g>
<defs>
<linearGradient id="paint0_linear_365_10376" x1="633.566" y1="-163.532" x2="633.566" y2="443" gradientUnits="userSpaceOnUse">
<stop offset="0.296875" stop-color="white"/>
<stop offset="1" stop-color="#51A4BE"/>
</linearGradient>
<linearGradient id="paint1_linear_365_10376" x1="633.566" y1="-163.532" x2="633.566" y2="443" gradientUnits="userSpaceOnUse">
<stop offset="0.296875" stop-color="white"/>
<stop offset="1" stop-color="#51A4BE"/>
</linearGradient>
<linearGradient id="paint2_linear_365_10376" x1="633.566" y1="-163.532" x2="633.566" y2="443" gradientUnits="userSpaceOnUse">
<stop offset="0.296875" stop-color="white"/>
<stop offset="1" stop-color="#51A4BE"/>
</linearGradient>
<linearGradient id="paint3_linear_365_10376" x1="633.566" y1="-163.532" x2="633.566" y2="443" gradientUnits="userSpaceOnUse">
<stop offset="0.296875" stop-color="white"/>
<stop offset="1" stop-color="#51A4BE"/>
</linearGradient>
<clipPath id="clip0_365_10376">
<rect width="1280" height="440" fill="white"/>
</clipPath>
<clipPath id="clip1_365_10376">
<rect width="1280" height="480" fill="white" transform="translate(0 -40)"/>
</clipPath>
</defs>
</svg>
